<svg id="Layer_1" data-name="Layer 1" xmlns="http://www.w3.org/2000/svg" viewBox="0 0 1920 1080"><defs><style>.cls-1{fill:#fff;}</style></defs><path class="cls-1" d="M486.49,1078.5c-81.54,0-156.23-13-222-38.57C191.2,1011.4,131.75,968,87.81,911,37.82,846,7.45,762.18,2.3,674.82c-5.43-92,16.48-181.46,63.37-258.77a459.93,459.93,0,0,1,63.11-81.39,1.5,1.5,0,0,0-.47-2.42c-28.43-12.57-53-29.21-71.13-48.13-19.62-20.51-31.32-43-34.77-66.71-4.93-34,7.46-72.18,34.88-107.66C96.49,59,159.64,22.08,218.18,15.6a165.6,165.6,0,0,1,18.13-1c65.55,0,109.83,42.65,165.88,96.64,36.32,35,77.49,74.64,133.14,111.93a1.49,1.49,0,0,0,1.8-.09c70.65-59.2,145.75-106.43,223.21-140.38C791.26,69.11,953.92,1.5,1120.42,1.5c111.93,0,200.72,30.81,263.89,91.59,37.2,35.78,67,83.24,86.14,137.24a1.54,1.54,0,0,0,1.42,1,1.55,1.55,0,0,0,.56-.11c66.35-26.89,158.72-68.26,222-112.67l1.09-.77C1710.26,107.44,1755,76,1814.23,76h.65c34.53.13,69.09,10.86,102.74,31.88-75.34,76.32-150.83,139.51-224.41,187.86-67.77,44.53-135.7,77.62-201.9,98.38a1.49,1.49,0,0,0-1,1.23c-5.81,44.87-21.86,83.41-46.42,111.46-41.62,47.53-111.18,70.64-212.66,70.64-24.79,0-48.07-1.31-66.78-2.36-13.43-.76-25-1.42-33.89-1.42-11.87,0-19.91,1-20.55,6-.32,2.45-1.29,9.92,47.5,29.6,30.65,12.36,73.91,26.57,121.83,40a1.4,1.4,0,0,0,.41,0,1.37,1.37,0,0,0,.4,0c52.57-14.69,108-29,156.74-29,6.86,0,13.54.29,19.89.87-4.41,22-7.82,44.27-10.14,66.28a1.5,1.5,0,0,0,1.21,1.63c45.47,8.72,88.68,15.33,128.47,19.63,14.24,32.89,19.42,71.13,14.28,105.37A920.26,920.26,0,0,0,1466,778c13.69-19.68,18.54-36.28,13.65-46.9-4.13-9-15.3-13.53-34.14-13.87h0a1.49,1.49,0,0,0-1.5,1.41c-1.1,18.7-1.38,37.12-.82,54.79-49.09-9.16-97.26-13.81-143.22-13.81-79.31,0-151.11,13.74-213.39,40.84a344.13,344.13,0,0,0-48,25.17A1.51,1.51,0,0,0,1038,827a1.48,1.48,0,0,0,.81,1.26c27.59,14.27,57,28.9,87,40.44-44.29-5.37-86.2-9-127.72-11H998a1.51,1.51,0,0,0-1,.4c-12.61,11.81-23.36,23.74-34.74,36.37-29.72,33-60.45,67.13-128.39,102.8-46.93,24.65-102.68,45.07-161.21,59.08A801.23,801.23,0,0,1,486.49,1078.5Zm407.6-705.28c-20,0-47,8.86-82.71,27.1a1.5,1.5,0,0,0-.8,1.13c-11.68,83.14,24.76,202.92,106,259.45,4.68,3.27,9.56,6.35,14.5,9.17a1.53,1.53,0,0,0,1.69-.14,1.49,1.49,0,0,0,.49-1.61c-14.73-47.58-5.9-105.14,1.89-155.92,9.39-61.2,17.5-114-17-133.49C911.44,375.14,903.34,373.22,894.09,373.22Zm-1.41-62.55c-18.91,0-34.28,5.18-47,15.82a72,72,0,0,0-6.54,6.22,1.5,1.5,0,0,0,.9,2.51,909.29,909.29,0,0,0,118.76,7.59c12.68,0,25.69-.25,38.67-.74a1.48,1.48,0,0,0,1.42-1.24,1.51,1.51,0,0,0-.92-1.65C953.61,321.58,920.52,310.67,892.68,310.67Zm751.57,701.76c-32.57,0-79.06-5.33-115.54-30.72-21.08-14.67-38.52-36.08-51.86-63.66,42.6-2.48,71.75-15.63,91.61-41.3,12.1-15.64,20.55-35.89,24.48-58.67,57.67,21.45,109.94,47.77,147.36,74.21,36.07,25.48,55.35,49.21,52.89,65.11-2,13.2-19.55,27-48,37.72C1716,1006.12,1679.27,1012.43,1644.25,1012.43ZM1460.79,915.5c-45,0-101.86-9.81-167.76-21.18l-21.47-3.69a267.08,267.08,0,0,0,50.58-11.42c45.8-15.07,90.38-42.69,122.84-76,3.87,43.48,13,81.17,27.25,112.11C1468.54,915.42,1464.7,915.5,1460.79,915.5ZM1241,889.5c-27.75,0-56.4-4.67-87.17-14.22,33.85,4.56,65.15,9.55,92.68,14.16C1244.71,889.48,1242.87,889.5,1241,889.5Zm206.39-93.26c-.47-6.28-.83-12.7-1.08-19.17,4.85.93,9.74,1.91,14.58,2.92A196,196,0,0,1,1447.42,796.24Zm228.21-84.69c-29.07,0-61.8-1.92-97.3-5.71-9.35-21-22.24-39.38-37.34-53.12-21.47-19.55-47.87-30.78-80.64-34.29,13.08-63.64,34.35-123,60-167.3,27.78-48.07,59.14-76.45,90.68-82.09a73.66,73.66,0,0,1,13-1.12c29.11,0,63.45,15.58,99.29,45.06,33.07,27.2,64,63.56,87.21,102.39,16.46,27.58,27.92,54.9,33.16,79,5.71,26.32,4.09,48-4.83,64.58C1820,693.86,1765.1,711.55,1675.63,711.55Z" transform="translate(0 0)"/><path d="M1120.42,3c111.53,0,200,30.67,262.85,91.17,36.41,35,65.69,81.29,84.8,134-111.9,45.17-211.55,75-244,81-57.14,10.55-135.35,25-226.15,28.44-44.23-17.52-77.29-28.37-105.26-28.38-19.27,0-35,5.29-47.95,16.17a75.79,75.79,0,0,0-5.6,5.21c-76.65-10.29-148.82-31.18-214.56-62.1a654.39,654.39,0,0,1-83.4-46.82,996.69,996.69,0,0,1,103.72-75.58A876.64,876.64,0,0,1,760.94,84c13-5.68,60.27-25.67,125-44.33C970.32,15.35,1049.22,3,1120.42,3M236.31,16.07c29.81,0,56.91,8.74,85.29,27.49,26.12,17.26,50.88,41.11,79.55,68.73,35.64,34.33,76,73.15,130,109.87a1041.7,1041.7,0,0,0-91.25,87C351,339.76,269.51,442.35,228.77,500.89c-57.73,83-105.23,179.54-118.2,240.33-5.68,26.65-4.22,44.18,4.33,52.1,3.93,3.65,9.43,5.42,16.79,5.42,22.78,0,62.15-17.1,122.22-46.72A186.12,186.12,0,0,0,272,798.43c12,21.51,29.14,41.56,50.94,59.65-31.05,25.91-57.78,53.36-75.5,77.57-10.39,14.19-26.79,40-20,53.51,2.64,5.22,8.06,7.75,16.59,7.75,17.9,0,49-10.92,96.18-27.45,34.74-12.18,77.94-27.33,128.45-42.31a353.09,353.09,0,0,0,77.78,9c50.09,0,91.63-12,120.14-34.64a129.21,129.21,0,0,0,23.18-24.13,1535.82,1535.82,0,0,1,170.13-16.11c19.66-.76,39.64-1.15,59.38-1.15h.06c23.58,0,47.6.55,71.5,1.63-10.52,10.26-19.9,20.67-29.74,31.6-29.63,32.9-60.28,66.92-128,102.48-46.82,24.58-102.44,45-160.86,58.94A799.91,799.91,0,0,1,486.49,1077a685.67,685.67,0,0,1-113.63-9.21A549.74,549.74,0,0,1,265,1038.53C192,1010.1,132.77,966.87,89,910A403.64,403.64,0,0,1,29.5,800.55,447.39,447.39,0,0,1,3.79,674.73a453.4,453.4,0,0,1,11.4-131.46A439.25,439.25,0,0,1,67,416.83a457.79,457.79,0,0,1,61.47-79.63c36.66,15.88,78.27,24.61,117.42,24.61a243.8,243.8,0,0,0,44.48-4c54.11-10.06,96.93-38.86,123.32-61.26C444,270.86,469,239.33,478.9,214.31c5.28-13.3,5.72-23.55,1.28-29.63-6.12-8.36-22.52-10.12-35.2-10.12-69.12,0-213.11,48.25-318,155.46-27.45-12.39-51.19-28.59-68.75-46.95-19.4-20.27-31-42.44-34.37-65.89C19,183.64,31.3,145.82,58.48,110.66c39-50.4,101.71-87.13,159.86-93.57a165.17,165.17,0,0,1,18-1M1814.23,74.48v3h.65c33.69.13,67.44,10.44,100.35,30.66-74.83,75.64-149.79,138.32-222.85,186.32-66.13,43.46-132.42,76-197.08,96.8,5.68-50.24-1.25-106.64-19.66-159.73,66.21-26.93,157.1-67.85,219.69-111.75l1.1-.77c14.6-10.28,59-41.53,117.8-41.53v-3m-1325.49,232a116.14,116.14,0,0,1,19.83,1.69c32,5.57,63.26,25.1,93,58.05,26.78,29.71,51.55,70,71.73,116.68C619.19,519,555.13,563.7,481.09,615.34l-.3.22c-67.21,46.88-133,82.71-176.38,104.51-16.34,8.22-31.85,16-46.32,23.19-11.72-57.08-.37-127.36,32.92-203.57,32.86-75.22,85.51-153.11,152.3-225.3a143.75,143.75,0,0,1,45.43-7.88m352.67,30.4a910.83,910.83,0,0,0,117.4,7.4c12.49,0,25.3-.24,38.09-.71,8.29,3.29,16.73,6.71,25.64,10.32,71.87,29.11,161.3,65.35,266.63,71.17,9.82.54,19.79.81,29.64.81,55.64,0,112.59-8.78,169.33-26.11-6.25,42.58-21.91,79.16-45.42,106-23.3,26.61-56.24,45.86-97.91,57.19-32,8.71-69.18,12.94-113.62,12.94-24.75,0-48-1.31-66.7-2.36-13.46-.76-25.08-1.42-34-1.42-10.21,0-21.17.57-22,7.29-.57,4.36,3.51,8.87,13.22,14.65,8.08,4.81,19.93,10.38,35.21,16.54,28.5,11.49,67.88,24.58,111.76,37.17l-16.48,4.67c-69.72,19.8-141.8,40.26-208,40.26-42.8,0-78.77-8.5-109.89-26-14.15-47-5.42-103.89,2.28-154.11,9.48-61.75,17.66-115.08-17.72-135-6.93-3.91-15.27-5.89-24.79-5.89-19.48,0-44.41,7.84-78.16,24.63,4.29-25.09,13-45.52,25.48-59.44M1624,369.42c14.65,0,30.82,4.07,48.06,12.12,16.3,7.6,33.22,18.57,50.29,32.61,32.93,27.09,63.79,63.32,86.87,102,16.37,27.44,27.77,54.6,33,78.54,5.64,26,4.06,47.34-4.68,63.55C1828,676,1808.41,689.36,1779.46,698c-26.7,8-61.63,12-103.83,12a925.32,925.32,0,0,1-96.29-5.61c-9.39-20.88-22.28-39.12-37.34-52.83-21.35-19.44-47.5-30.74-79.85-34.49,13.08-62.88,34.15-121.44,59.46-165.24,27.56-47.67,58.56-75.81,89.65-81.36a72.62,72.62,0,0,1,12.75-1.1M808.37,406.94c-9.35,83.28,27.48,199.61,107.32,255.2,4.4,3.06,9,6,13.6,8.64a128.39,128.39,0,0,0,29.4,50.36c31.59,33.06,80.87,49.14,150.65,49.14,69.44,0,145.92-15.74,213.41-29.63,48.94-10.06,91.26-18.77,119.6-18.94-.91,17-1.15,33.76-.69,49.9-48.54-8.94-96.18-13.48-141.67-13.48-79.51,0-151.51,13.77-214,41a347.74,347.74,0,0,0-46.7,24.36c-8.56-4.44-17.32-9-25.81-13.49-84.41-44.31-171.66-90.11-283-97.74-1.33-72.78-19.38-155.22-49.72-227.06,54.69-36.39,95.49-61.4,127.62-78.21m628.48,214.78c6.22,0,12.29.24,18.09.72-4,20.41-7.23,41.08-9.48,61.52-51.09-9.89-104.23-22.33-154.54-36.15,49.32-13.59,100.55-26.09,145.93-26.09m13.89,69.37c44,8.36,85.86,14.73,124.51,18.94,13.62,31.87,18.7,68.7,14.09,101.92a924.7,924.7,0,0,0-120.8-35c13-19.33,17.48-35.75,12.52-46.53-4.16-9-14.76-13.84-32.35-14.64.52-8.16,1.2-16.46,2-24.74m-752,26c8.58,0,17.26.24,25.84.73.43,65.41-12.73,118.58-38.13,154A1631.94,1631.94,0,0,0,468.49,921c-51.21-11.83-99.34-34.1-136.07-62.91A675.53,675.53,0,0,1,487,763.71c67.95-29.61,136.28-45.26,203.09-46.51,2.87-.05,5.77-.08,8.64-.08m749.21,61.78c3.46.67,6.94,1.36,10.4,2.08-2.93,3.85-6.16,7.74-9.64,11.65-.31-4.52-.56-9.11-.76-13.73m-4.13,27.63c4,41.34,12.74,77.4,26.15,107.33-3,.09-6,.14-9.14.14-44.82,0-101.68-9.81-167.52-21.16l-12-2.07a269.84,269.84,0,0,0,41.38-10.14c45-14.79,88.75-41.62,121.17-74.1m150.32,13.58c56.88,21.29,108.38,47.29,145.34,73.4,35.58,25.14,54.63,48.34,52.27,63.66-1.92,12.47-19.53,26.13-47.1,36.55-28.94,10.93-65.52,17.21-100.36,17.21-32.36,0-78.52-5.29-114.68-30.45-20.35-14.16-37.29-34.7-50.38-61.07,41.84-2.84,70.66-16.16,90.45-41.74,11.94-15.42,20.36-35.26,24.46-57.56m-554.49,10.24c23.9,12.34,49.17,24.9,75,35.47-37.63-4.34-73.63-7.42-109.27-9.33a276.14,276.14,0,0,1,34.3-26.14m136.7,49.58c17.33,2.5,33.87,5.08,49.42,7.6a285,285,0,0,1-49.42-7.6M1120.42,0C950.48,0,783,71.1,759.74,81.29c-80.06,35.1-156,84-223.57,140.61a661,661,0,0,0,87.12,49.27c72.56,34.12,146.18,53.19,217,62.56a71.85,71.85,0,0,1,6.4-6.09c13.05-10.93,28.39-15.47,46-15.47,28.83,0,63.78,12.16,104.74,28.41,91.3-3.42,170.77-18.1,227.23-28.52,35.75-6.6,139.81-38.71,247.22-82.23C1453.47,178,1424.14,129.32,1385.35,92c-72-69.28-168.86-92-264.93-92ZM236.31,13.07a165.42,165.42,0,0,0-18.3,1C115.09,25.51,7.81,127.37,20.93,217.61c7.28,50.12,50.91,91.3,106.78,116,106.72-110.07,251.79-156,317.27-156,16.92,0,28.52,3.07,32.78,8.89,18.41,25.2-68.36,146.21-188,168.45a240.9,240.9,0,0,1-43.93,3.91,297.31,297.31,0,0,1-118.13-25.2,460,460,0,0,0-63.32,81.66c-98,161.63-79,365.2,22.23,496.59C179.84,1032.91,333,1080,486.49,1080c127,0,254.26-32.23,348-81.48,94.09-49.41,117.82-96.69,163.46-139.4-25.4-1.26-51.6-2-78.64-2-19.45,0-39.26.37-59.56,1.15A1531.55,1531.55,0,0,0,688.1,874.64a126.32,126.32,0,0,1-23.37,24.56c-29.25,23.26-71.68,34-118.26,34a352,352,0,0,1-77.89-9.14c-117.08,34.67-193.76,69.86-224.53,69.86-7.12,0-11.78-1.88-13.91-6.1-9-17.8,29.07-73.32,97.51-129.74-21.94-17.71-40.26-38.21-53-61.1A183.55,183.55,0,0,1,256,747.66C196.65,777,154.62,795.74,131.69,795.74c-6.43,0-11.36-1.48-14.75-4.62-45.28-42,145.25-418.47,324.69-479.33a1035,1035,0,0,1,94.54-89.89C393.08,126,344.44,13.07,236.31,13.07ZM1814.23,74.48c-61.25,0-106.82,33.16-120.62,42.84-57,40-140.32,79.51-221.74,112.51,19.46,54.87,26.68,113.32,19.89,165.7,126.93-39.79,269.71-127,428.24-287.95-22.13-14-59.08-32.92-105.11-33.1Zm-1325.49,229c-15.51,0-31.26,2.91-47.11,8.28C307.54,456.51,228.63,626.32,256,747.66q23.16-11.46,49.79-24.91c95.9-48.21,162.27-94.63,177.05-105C558.25,565.18,622.54,520.34,677,484c-39.72-93-99.62-166.91-167.92-178.79a118.55,118.55,0,0,0-20.35-1.74Zm351.51,30.22c-14.87,16-24.24,39.87-28.19,67.93,34.72-17.74,61.67-26.94,82-26.94,9,0,16.77,1.81,23.31,5.5,62,35-17.95,184.09,14.4,288.54,34.24,19.53,72.3,27,112.41,27,75.11,0,157.45-26.1,235.5-47.91-98.6-27.68-169.78-56.25-168.26-68,.46-3.54,7.38-4.68,19.07-4.68,21.26,0,58.26,3.78,100.67,3.78,72.64,0,161.19-11.08,213.79-71.15,25.89-29.58,41.15-68.82,46.78-112.25-61.35,19.23-119,27.37-173,27.37q-14.93,0-29.48-.81c-117.92-6.52-215.41-51.17-291.91-81.51q-19,.71-38.61.73a903.24,903.24,0,0,1-118.56-7.58ZM1624,366.42a74.71,74.71,0,0,0-13.28,1.14c-67.56,12.08-126.28,124.71-152.19,252.19,30.94,3,58.53,13.22,81.44,34.08,15.79,14.37,28.32,32.89,37.32,53.41,34.45,3.7,67.67,5.81,98.33,5.81,80.71,0,143.61-14.62,164.53-53.38,46.11-85.47-109.6-293.25-216.15-293.25ZM812.06,401.66c-36.14,18.46-80.71,46.17-135,82.38,30.89,72.27,49.57,156,50.5,231,124.43,7.8,221,64.82,311.94,111.87a343.94,343.94,0,0,1,47.75-25.06c66.54-29,139.61-40.71,212.79-40.7,48.86,0,97.78,5.24,144.78,14.12-.64-18.51-.37-37.43.76-56.52l-2.36,0c-67,0-213.16,48.57-333.83,48.57-60.14,0-113.94-12.06-148.48-48.21-14.13-14.79-23.35-31.85-29.06-50.31q-7.32-4.17-14.4-9.09c-81.34-56.63-117-175.3-105.34-258Zm624.79,217.06c-47.35,0-101.14,13.44-157.14,29.1,50.88,14.28,109.09,28.32,168.38,39.7,2.4-22.74,5.92-45.47,10.45-67.77-7-.7-14.3-1-21.69-1Zm11.24,68.8q-1.63,15.63-2.56,31.21c17.1.31,28.69,4.06,32.8,13,4.86,10.56-.92,27.87-14.83,47.26a923.47,923.47,0,0,1,128.26,37c5.69-35.29.46-74.8-14.46-108.8-42-4.52-85.91-11.41-129.21-19.72ZM698.7,714.12c-2.87,0-5.8,0-8.7.08-146.24,2.74-277.59,74-362.35,143.87,39.05,31.53,89.59,54.23,140.93,66A1635.58,1635.58,0,0,1,688.1,874.64C716.3,836,728.31,778.69,727.51,715q-14.16-.88-28.81-.9Zm746.07,61.13c.29,8.25.76,16.44,1.42,24.5A198.12,198.12,0,0,0,1463.5,779c-6.21-1.31-12.44-2.55-18.73-3.74Zm1.42,24.5c-28.41,30-72.64,61-124.51,78a259.94,259.94,0,0,1-61.3,12.47c81.5,13.83,148.25,26.75,200.41,26.75q7.05,0,13.74-.33c-15.68-33.26-24.77-73.5-28.34-116.92ZM1591.76,816c-3.63,22.48-11.68,43.24-24.49,59.79-21.23,27.45-52.11,38.85-92.74,40.84,13,27.63,30.6,50.46,53.33,66.27,31.94,22.24,74.58,31,116.39,31,74.31,0,146-27.64,150.43-56.3,5.25-34-80.31-96.26-202.92-141.59Zm-552.31,10.85A278.64,278.64,0,0,0,998,859.12c50,2.47,96.81,7.06,140.49,12.63-33-11.66-65.63-27.59-99-44.86Zm99,44.86C1171.92,883.56,1205.73,891,1241,891q9.6,0,19.35-.75c-37.48-6.36-78.13-12.92-121.9-18.5Z" transform="translate(0 0)"/></svg>