<svg id="Layer_1" data-name="Layer 1" xmlns="http://www.w3.org/2000/svg" viewBox="0 0 96 95.94"><defs><style>.cls-1{fill:#fff;}</style></defs><ellipse class="cls-1" cx="48.46" cy="49.15" rx="43.4" ry="46.79"/><path d="M194.16,44.22c-12.38-1.5-21.1-10.4-21.1-21.93a21.4,21.4,0,0,1,4.5-13.13c-1.22-3.09-1-9.65.38-12.37,3.75-.47,8.81,1.5,11.81,4.22A38.26,38.26,0,0,1,201.66-.68,39.33,39.33,0,0,1,213.37.91c2.91-2.62,8.07-4.59,11.82-4.12,1.31,2.53,1.5,9.09.28,12.28a20.59,20.59,0,0,1,4.59,13.22c0,11.53-8.72,20.25-21.28,21.84,3.19,2.06,5.34,6.56,5.34,11.72V65.6c0,2.81,2.35,4.41,5.16,3.28a47.53,47.53,0,0,0,30.28-44.44,48,48,0,1,0-96,0,47.29,47.29,0,0,0,31,44.53,3.56,3.56,0,0,0,5-3.28v-7.5a11.91,11.91,0,0,1-4.5.94c-6.19,0-9.84-3.37-12.47-9.66-1-2.53-2.15-4-4.31-4.31-1.12-.09-1.5-.56-1.5-1.12,0-1.13,1.88-2,3.75-2,2.72,0,5.06,1.69,7.5,5.15,1.88,2.72,3.84,3.94,6.19,3.94s3.84-.84,6-3C191.81,46.57,193,45.16,194.16,44.22Z" transform="translate(-153.56 23.74)"/></svg>