<svg id="Layer_1" data-name="Layer 1" xmlns="http://www.w3.org/2000/svg" viewBox="0 0 78.29787 78.29787"><defs><style>.cls-1{fill:#070c17;}.cls-2{fill:#fff;stroke:#070c17;stroke-miterlimit:10;stroke-width:7px;}</style></defs><circle class="cls-1" cx="39.14894" cy="39.14894" r="39.14894"/><path class="cls-2" d="M-77.44131,77.0435V32.62443q0-8.26086,5.04427-13.49726A17.35974,17.35974,0,0,1-59.3092,13.89078q9.54323,0,14.67838,8.71228a20.42234,20.42234,0,0,1,6.7257-6.70349,17.92832,17.92832,0,0,1,8.86156-2.00879q8.36167,0,12.81518,5.23639t4.4535,15.07721V77.0435H-30.2251V36.958a10.51932,10.51932,0,0,0-.47716-3.94987,1.93689,1.93689,0,0,0-1.93137-.97054q-2.72664,0-2.72663,4.60442V77.0435H-53.81049V36.958a10.09452,10.09452,0,0,0-.49988-3.9273,1.97516,1.97516,0,0,0-1.95409-.99311q-2.72663,0-2.72663,4.92041V77.0435Z" transform="translate(83.75703 -6.3182)"/></svg>