<svg id="Ñëîé_1" data-name="Ñëîé 1" xmlns="http://www.w3.org/2000/svg" xmlns:xlink="http://www.w3.org/1999/xlink" viewBox="0 0 303.81034 274.46504"><defs><style>.cls-1{fill:#020230;opacity:0.6;}.cls-2,.cls-3,.cls-5,.cls-9{fill:#fff;}.cls-2{stroke:#070c17;}.cls-16,.cls-2,.cls-3,.cls-4{stroke-miterlimit:10;}.cls-16,.cls-3,.cls-4{stroke:#fff;}.cls-4,.cls-7{fill:#070c17;}.cls-16,.cls-6,.cls-8,.cls-9{opacity:0.4;}.cls-10,.cls-13,.cls-16,.cls-8{fill:#06033e;}.cls-10,.cls-12{opacity:0.5;}.cls-11{fill:url(#radial-gradient);}.cls-14{fill:#e8975b;}.cls-15{fill:#f8359e;}</style><radialGradient id="radial-gradient" cx="172.81106" cy="71.46883" r="335.97038" gradientUnits="userSpaceOnUse"><stop offset="0.47421" stop-color="#070c17"/><stop offset="0.72619" stop-color="#070c17"/><stop offset="1" stop-color="#070c17"/></radialGradient></defs><path class="cls-1" d="M476.49291,272.95037l-72.4639-33.1267-24.4182,34.1852-105.5364-60.9315c-2.0334-1.1738-5.5849-1.0266-7.9328.3288l-89.5315,51.6912c-2.3479,1.3555-2.6028,3.406-.5696,4.58l139.499,80.5396c2.0332,1.1741,5.585,1.0269,7.9326-.3287l88.4112-51.0443h0l64.3808-21.5639A2.33068,2.33068,0,0,0,476.49291,272.95037Z" transform="translate(-174.04435 -76.5446)"/><path class="cls-2" d="M450.63261,157.80617l-138.9497-80.2227a3.60022,3.60022,0,0,0-2.8361-.4073v-.0001l-.0012.0004-.0126.0044-2.5727.8964.9056.2141a4.49178,4.49178,0,0,0-.8484,1.5891L274.89471,181.905a6.15379,6.15379,0,0,0,2.547,6.8652l138.9498,80.2227a4.073,4.073,0,0,0,1.0222.4175l-.3442.7498,2.4576-.8631-.0057-.0021a3.92753,3.92753,0,0,0,2.2355-2.5991l31.4228-102.0245A6.15409,6.15409,0,0,0,450.63261,157.80617Z" transform="translate(-174.04435 -76.5446)"/><path class="cls-3" d="M411.41771,272.80237l.0493.0588-137.2464-79.2393c-2.019-1.1656-5.5455-1.0194-7.8768.3265l-88.6743,51.1962-2.957-1.1289.8306,4.1483.004-.0023a2.48208,2.48208,0,0,0,1.3311,1.6609l138.5149,79.9716c2.0191,1.1657,5.5456,1.0195,7.8769-.3265l88.9-51.3264a3.55579,3.55579,0,0,0,1.884-2.1956l.005.0061.8484-4.0375Z" transform="translate(-174.04435 -76.5446)"/><path class="cls-4" d="M315.53941,326.14467l-139.4989-80.5398c-2.0333-1.1739-1.7783-3.2244.5695-4.5799l89.5316-51.6911c2.3478-1.3556,5.8995-1.5028,7.9328-.3288l139.4989,80.5397c2.0333,1.1739,1.7783,3.2245-.5695,4.58l-89.5316,51.6911C321.12431,327.17137,317.57271,327.31857,315.53941,326.14467Z" transform="translate(-174.04435 -76.5446)"/><path class="cls-5" d="M413.00361,273.03847l-89.5314,51.6909c-2.3478,1.3556-5.8995,1.503-7.9327.3291l-139.4991-80.5399a2.60575,2.60575,0,0,1-1.2685-1.4466,2.17412,2.17412,0,0,0,1.2685,2.5329l139.4991,80.5399c2.0332,1.1739,5.5849,1.0265,7.9327-.3288l89.5314-51.6912c1.5481-.8937,2.1654-2.0859,1.8382-3.1333A3.69414,3.69414,0,0,1,413.00361,273.03847Z" transform="translate(-174.04435 -76.5446)"/><g class="cls-6"><path class="cls-5" d="M242.57961,232.53467l-4.7097-2.7191c-.3781-.2184-.3307-.5997.106-.8518l5.559-3.2095a1.63981,1.63981,0,0,1,1.4753-.0612l4.7097,2.7192c.3781.2183.3307.5996-.1059.8517l-5.5591,3.2095A1.6398,1.6398,0,0,1,242.57961,232.53467Z" transform="translate(-174.04435 -76.5446)"/><path class="cls-5" d="M249.85281,236.73377l-4.7097-2.7191c-.3782-.2183-.3307-.5997.1059-.8517l5.5591-3.2096a1.63978,1.63978,0,0,1,1.4753-.0611l4.7096,2.7191c.3782.2183.3307.5997-.1059.8518l-5.559,3.2095A1.63948,1.63948,0,0,1,249.85281,236.73377Z" transform="translate(-174.04435 -76.5446)"/><path class="cls-5" d="M257.12591,240.933l-4.7097-2.7191c-.3781-.2183-.3307-.5997.106-.8518l5.559-3.2095a1.63981,1.63981,0,0,1,1.4753-.0612l4.7097,2.7192c.3781.2183.3307.5996-.1059.8517l-5.5591,3.2095A1.6398,1.6398,0,0,1,257.12591,240.933Z" transform="translate(-174.04435 -76.5446)"/><path class="cls-5" d="M267.18511,237.46517l-4.7097-2.7191c-.3782-.2184-.3307-.5997.1059-.8518l4.6665-2.6942a1.63981,1.63981,0,0,1,1.4753-.0612l4.7097,2.7192c.3781.2183.3307.5996-.1059.8517l-4.6665,2.6942A1.63981,1.63981,0,0,1,267.18511,237.46517Z" transform="translate(-174.04435 -76.5446)"/><path class="cls-5" d="M274.45821,241.66427l-4.7097-2.7191c-.3781-.2183-.3307-.5997.106-.8518l4.6665-2.6942a1.63978,1.63978,0,0,1,1.4753-.0611l4.7096,2.7191c.3782.2183.3308.5997-.1059.8518l-4.6665,2.6942A1.63946,1.63946,0,0,1,274.45821,241.66427Z" transform="translate(-174.04435 -76.5446)"/><path class="cls-5" d="M281.73141,245.86347l-4.7097-2.7191c-.3782-.2184-.3307-.5997.1059-.8518l4.6665-2.6942a1.63981,1.63981,0,0,1,1.4753-.0612l4.7097,2.7192c.3781.2183.3307.5996-.1059.8517l-4.6665,2.6942A1.63981,1.63981,0,0,1,281.73141,245.86347Z" transform="translate(-174.04435 -76.5446)"/><path class="cls-5" d="M289.00451,250.06257l-4.7097-2.7191c-.3781-.2183-.3307-.5997.106-.8517l4.6665-2.6943a1.63978,1.63978,0,0,1,1.4753-.0611l4.7096,2.7191c.3782.2183.3308.5997-.1059.8518l-4.6665,2.6942A1.63946,1.63946,0,0,1,289.00451,250.06257Z" transform="translate(-174.04435 -76.5446)"/><path class="cls-5" d="M296.27771,254.26177l-4.7097-2.7191c-.3781-.2183-.3307-.5997.1059-.8518l4.6665-2.6942a1.63981,1.63981,0,0,1,1.4753-.0612l4.7097,2.7192c.3781.2183.3307.5996-.1059.8517l-4.6665,2.6942A1.63981,1.63981,0,0,1,296.27771,254.26177Z" transform="translate(-174.04435 -76.5446)"/><path class="cls-5" d="M303.55081,258.461l-4.7097-2.7192c-.3781-.2183-.3307-.5996.106-.8517l4.6665-2.6942a1.6398,1.6398,0,0,1,1.4753-.0612l4.7096,2.7191c.3782.2184.3308.5997-.1059.8518l-4.6665,2.6942A1.6398,1.6398,0,0,1,303.55081,258.461Z" transform="translate(-174.04435 -76.5446)"/><path class="cls-5" d="M310.824,262.66007l-4.7097-2.7191c-.3781-.2183-.3307-.5997.1059-.8518l4.6665-2.6942a1.63948,1.63948,0,0,1,1.4753-.0611l4.7097,2.7191c.3781.2183.3307.5997-.1059.8518l-4.6665,2.6942A1.63979,1.63979,0,0,1,310.824,262.66007Z" transform="translate(-174.04435 -76.5446)"/><path class="cls-5" d="M318.09711,266.85927l-4.7097-2.7192c-.3781-.2183-.3307-.5996.106-.8517l4.6665-2.6942a1.6398,1.6398,0,0,1,1.4753-.0612l4.7096,2.7191c.3782.2184.3308.5997-.1059.8518l-4.6665,2.6942A1.6398,1.6398,0,0,1,318.09711,266.85927Z" transform="translate(-174.04435 -76.5446)"/><path class="cls-5" d="M325.37031,271.05837l-4.7097-2.7191c-.3781-.2183-.3307-.5997.1059-.8518l4.6665-2.6942a1.63948,1.63948,0,0,1,1.4753-.0611l4.7097,2.7191c.3781.2183.3307.5997-.1059.8518l-4.6665,2.6942A1.63979,1.63979,0,0,1,325.37031,271.05837Z" transform="translate(-174.04435 -76.5446)"/><path class="cls-5" d="M332.64341,275.25757l-4.7097-2.7191c-.3781-.2184-.3307-.5997.106-.8518l4.6665-2.6942a1.6398,1.6398,0,0,1,1.4753-.0612l4.7097,2.7192c.3781.2183.3307.5996-.106.8517l-4.6665,2.6942A1.6398,1.6398,0,0,1,332.64341,275.25757Z" transform="translate(-174.04435 -76.5446)"/><path class="cls-5" d="M277.90161,235.47707l-4.7097-2.7191c-.3781-.2183-.3307-.5997.1059-.8518l4.6666-2.6942a1.63978,1.63978,0,0,1,1.4753-.0611l4.7096,2.7191c.3782.2183.3307.5997-.1059.8518l-4.6665,2.6942A1.63947,1.63947,0,0,1,277.90161,235.47707Z" transform="translate(-174.04435 -76.5446)"/><path class="cls-5" d="M270.51991,231.21527l-4.7097-2.7191c-.3781-.2183-.3307-.5997.1059-.8518l4.6665-2.6942a1.63948,1.63948,0,0,1,1.4753-.0611l4.7097,2.7191c.3782.2183.3307.5997-.1059.8518l-4.6665,2.6942A1.63979,1.63979,0,0,1,270.51991,231.21527Z" transform="translate(-174.04435 -76.5446)"/><path class="cls-5" d="M263.12611,226.94647l-10.1434-5.8563c-.3781-.2183-.3307-.5997.1059-.8518l4.6665-2.6942a1.63979,1.63979,0,0,1,1.4753-.0611l10.1435,5.8563c.3781.2183.3307.5997-.106.8518l-4.6665,2.6942A1.63978,1.63978,0,0,1,263.12611,226.94647Z" transform="translate(-174.04435 -76.5446)"/><path class="cls-5" d="M268.29431,221.75507l-8.2316-4.7525c-.3782-.2183-.3308-.5997.1059-.8518l4.6665-2.6942a1.63946,1.63946,0,0,1,1.4753-.0611l8.2316,4.7525c.3782.2183.3308.5997-.1059.8518l-4.6665,2.6942A1.63946,1.63946,0,0,1,268.29431,221.75507Z" transform="translate(-174.04435 -76.5446)"/><path class="cls-5" d="M285.17471,239.67627l-4.7096-2.7191c-.3782-.2184-.3307-.5997.1059-.8518l4.6665-2.6942a1.63981,1.63981,0,0,1,1.4753-.0612l4.7097,2.7192c.3781.2183.3307.5996-.1059.8517l-4.6666,2.6942A1.6398,1.6398,0,0,1,285.17471,239.67627Z" transform="translate(-174.04435 -76.5446)"/><path class="cls-5" d="M292.44791,243.87547l-4.7097-2.7192c-.3781-.2183-.3307-.5996.1059-.8517l4.6666-2.6943a1.64009,1.64009,0,0,1,1.4753-.0611l4.7096,2.7191c.3782.2183.3307.5997-.1059.8518l-4.6665,2.6942A1.63981,1.63981,0,0,1,292.44791,243.87547Z" transform="translate(-174.04435 -76.5446)"/><path class="cls-5" d="M299.721,248.07457l-4.7096-2.7191c-.3782-.2183-.3307-.5997.1059-.8518l4.6665-2.6942a1.63947,1.63947,0,0,1,1.4753-.0611l4.7097,2.7191c.3781.2183.3307.5997-.1059.8517l-4.6665,2.6943A1.64,1.64,0,0,1,299.721,248.07457Z" transform="translate(-174.04435 -76.5446)"/><path class="cls-5" d="M306.99421,252.27377l-4.7097-2.7192c-.3781-.2183-.3307-.5996.1059-.8517l4.6666-2.6942a1.6398,1.6398,0,0,1,1.4753-.0612l4.7096,2.7191c.3782.2184.3308.5997-.1059.8518l-4.6665,2.6942A1.63981,1.63981,0,0,1,306.99421,252.27377Z" transform="translate(-174.04435 -76.5446)"/><path class="cls-5" d="M314.26741,256.47287l-4.7097-2.7191c-.3782-.2183-.3307-.5997.1059-.8518l4.6665-2.6942a1.63948,1.63948,0,0,1,1.4753-.0611l4.7097,2.7191c.3781.2183.3307.5997-.1059.8518l-4.6665,2.6942A1.63979,1.63979,0,0,1,314.26741,256.47287Z" transform="translate(-174.04435 -76.5446)"/><path class="cls-5" d="M321.54051,260.67207l-4.7097-2.7192c-.3781-.2183-.3307-.5996.106-.8517l4.6665-2.6942a1.6398,1.6398,0,0,1,1.4753-.0612l4.7096,2.7191c.3782.2184.3308.5997-.1059.8518l-4.6665,2.6942A1.63981,1.63981,0,0,1,321.54051,260.67207Z" transform="translate(-174.04435 -76.5446)"/><path class="cls-5" d="M328.81371,264.87117l-4.7097-2.7191c-.3782-.2183-.3307-.5997.1059-.8518l4.6665-2.6942a1.63979,1.63979,0,0,1,1.4753-.0611l4.7097,2.7191c.3781.2183.3307.5997-.1059.8518l-4.6665,2.6942A1.63948,1.63948,0,0,1,328.81371,264.87117Z" transform="translate(-174.04435 -76.5446)"/><path class="cls-5" d="M336.08681,269.07037l-4.7097-2.7191c-.3781-.2184-.3307-.5997.106-.8518l4.6665-2.6942a1.6398,1.6398,0,0,1,1.4753-.0612l4.7096,2.7192c.3782.2183.3308.5996-.1059.8517l-4.6665,2.6942A1.63981,1.63981,0,0,1,336.08681,269.07037Z" transform="translate(-174.04435 -76.5446)"/><path class="cls-5" d="M343.36,273.26947l-4.7097-2.7191c-.3782-.2183-.3307-.5997.1059-.8518l4.6665-2.6942a1.63979,1.63979,0,0,1,1.4753-.0611l4.7097,2.7191c.3781.2183.3307.5997-.1059.8518l-4.6665,2.6942A1.63948,1.63948,0,0,1,343.36,273.26947Z" transform="translate(-174.04435 -76.5446)"/><path class="cls-5" d="M356.29,280.73467l-10.2761-5.9329c-.3781-.2183-.3307-.5997.1059-.8518l4.6665-2.6942a1.63948,1.63948,0,0,1,1.4753-.0611l10.2761,5.9329c.3782.2183.3308.5997-.1059.8517l-4.6665,2.6943A1.63978,1.63978,0,0,1,356.29,280.73467Z" transform="translate(-174.04435 -76.5446)"/><path class="cls-5" d="M370.44991,272.55947l-8.6734-5.0076c-.3781-.2183-.3307-.5997.1059-.8518l4.6665-2.6942a1.63981,1.63981,0,0,1,1.4753-.0612l8.6734,5.0076c.3782.2184.3308.5997-.1059.8518l-4.6665,2.6942A1.6398,1.6398,0,0,1,370.44991,272.55947Z" transform="translate(-174.04435 -76.5446)"/><path class="cls-5" d="M297.91161,238.85467l-4.7097-2.7191c-.3781-.2184-.3307-.5997.1059-.8518l4.6666-2.6942a1.6398,1.6398,0,0,1,1.4753-.0612l4.7096,2.7192c.3782.2183.3308.5996-.1059.8517l-4.6665,2.6942A1.63981,1.63981,0,0,1,297.91161,238.85467Z" transform="translate(-174.04435 -76.5446)"/><path class="cls-5" d="M290.45751,234.55107l-4.7096-2.7191c-.3782-.2184-.3308-.5997.1059-.8518l4.6665-2.6942a1.6398,1.6398,0,0,1,1.4753-.0612l4.7097,2.7192c.3781.2183.3307.5996-.106.8517l-4.6665,2.6942A1.6398,1.6398,0,0,1,290.45751,234.55107Z" transform="translate(-174.04435 -76.5446)"/><path class="cls-5" d="M283.00341,230.24747l-4.7096-2.7192c-.3782-.2183-.3307-.5996.1059-.8517l4.6665-2.6942a1.63981,1.63981,0,0,1,1.4753-.0612l4.7097,2.7191c.3781.2184.3307.5997-.1059.8518l-4.6665,2.6942A1.64,1.64,0,0,1,283.00341,230.24747Z" transform="translate(-174.04435 -76.5446)"/><path class="cls-5" d="M275.54941,225.94387l-4.7097-2.7192c-.3781-.2183-.3307-.5996.1059-.8517l4.6665-2.6942a1.63981,1.63981,0,0,1,1.4753-.0612l4.7097,2.7191c.3781.2183.3307.5997-.1059.8518l-4.6665,2.6942A1.63981,1.63981,0,0,1,275.54941,225.94387Z" transform="translate(-174.04435 -76.5446)"/><path class="cls-5" d="M305.18481,243.05377l-4.7097-2.7191c-.3782-.2183-.3307-.5997.1059-.8517l4.6665-2.6943a1.63979,1.63979,0,0,1,1.4753-.0611l4.7097,2.7191c.3781.2183.3307.5997-.1059.8518l-4.6665,2.6942A1.63948,1.63948,0,0,1,305.18481,243.05377Z" transform="translate(-174.04435 -76.5446)"/><path class="cls-5" d="M312.45791,247.253l-4.7097-2.7191c-.3781-.2183-.3307-.5997.106-.8518l4.6665-2.6942a1.6398,1.6398,0,0,1,1.4753-.0612l4.7096,2.7192c.3782.2183.3308.5996-.1059.8517l-4.6665,2.6943A1.6401,1.6401,0,0,1,312.45791,247.253Z" transform="translate(-174.04435 -76.5446)"/><path class="cls-5" d="M319.73111,251.45217l-4.7097-2.7192c-.3782-.2183-.3307-.5996.1059-.8517l4.6665-2.6942a1.63981,1.63981,0,0,1,1.4753-.0612l4.7097,2.7191c.3781.2184.3307.5997-.1059.8518l-4.6665,2.6942A1.63981,1.63981,0,0,1,319.73111,251.45217Z" transform="translate(-174.04435 -76.5446)"/><path class="cls-5" d="M327.00421,255.65127l-4.7097-2.7191c-.3781-.2183-.3307-.5997.106-.8518l4.6665-2.6942a1.63946,1.63946,0,0,1,1.4753-.0611l4.7096,2.7191c.3782.2183.3308.5997-.1059.8518l-4.6665,2.6942A1.63978,1.63978,0,0,1,327.00421,255.65127Z" transform="translate(-174.04435 -76.5446)"/><path class="cls-5" d="M334.27741,259.85047l-4.7097-2.7192c-.3782-.2183-.3307-.5996.1059-.8517l4.6665-2.6942a1.63981,1.63981,0,0,1,1.4753-.0612l4.7097,2.7191c.3781.2184.3307.5997-.1059.8518l-4.6665,2.6942A1.63981,1.63981,0,0,1,334.27741,259.85047Z" transform="translate(-174.04435 -76.5446)"/><path class="cls-5" d="M341.55051,264.04957l-4.7097-2.7191c-.3781-.2183-.3307-.5997.106-.8518l4.6665-2.6942a1.63946,1.63946,0,0,1,1.4753-.0611l4.7096,2.7191c.3782.2183.3308.5997-.1059.8518l-4.6665,2.6942A1.63978,1.63978,0,0,1,341.55051,264.04957Z" transform="translate(-174.04435 -76.5446)"/><path class="cls-5" d="M348.82371,268.24877l-4.7097-2.7191c-.3782-.2184-.3307-.5997.1059-.8518l4.6665-2.6942a1.63981,1.63981,0,0,1,1.4753-.0612l4.7097,2.7192c.3781.2183.3307.5996-.1059.8517l-4.6665,2.6942A1.63981,1.63981,0,0,1,348.82371,268.24877Z" transform="translate(-174.04435 -76.5446)"/><path class="cls-5" d="M356.09681,272.44787l-4.7097-2.7191c-.3781-.2183-.3307-.5997.106-.8518l4.6665-2.6942a1.63978,1.63978,0,0,1,1.4753-.0611l4.7096,2.7191c.3782.2183.3308.5997-.1059.8518l-4.6665,2.6942A1.63946,1.63946,0,0,1,356.09681,272.44787Z" transform="translate(-174.04435 -76.5446)"/><path class="cls-5" d="M363.37,276.64707l-4.7097-2.7191c-.3782-.2184-.3307-.5997.1059-.8518l4.6665-2.6942a1.63981,1.63981,0,0,1,1.4753-.0612l4.7097,2.7192c.3781.2183.3307.5996-.1059.8517l-4.6665,2.6942A1.63981,1.63981,0,0,1,363.37,276.64707Z" transform="translate(-174.04435 -76.5446)"/><path class="cls-5" d="M294.08181,228.46827l-4.7096-2.7191c-.3782-.2183-.3308-.5997.1059-.8518l4.6665-2.6942a1.63978,1.63978,0,0,1,1.4753-.0611l4.7097,2.7191c.3781.2183.3307.5997-.106.8518l-4.6665,2.6942A1.63946,1.63946,0,0,1,294.08181,228.46827Z" transform="translate(-174.04435 -76.5446)"/><path class="cls-5" d="M286.84491,224.29007l-4.7097-2.7191c-.3782-.2184-.3307-.5997.1059-.8518l4.6665-2.6942a1.63981,1.63981,0,0,1,1.4753-.0612l4.7097,2.7192c.3781.2183.3307.5996-.1059.8517l-4.6665,2.6942A1.63981,1.63981,0,0,1,286.84491,224.29007Z" transform="translate(-174.04435 -76.5446)"/><path class="cls-5" d="M279.60791,220.11177l-4.7097-2.7191c-.3781-.2183-.3307-.5997.1059-.8518l4.6666-2.6942a1.63946,1.63946,0,0,1,1.4753-.0611l4.7096,2.7191c.3782.2183.3307.5997-.1059.8518l-4.6665,2.6942A1.63978,1.63978,0,0,1,279.60791,220.11177Z" transform="translate(-174.04435 -76.5446)"/><path class="cls-5" d="M272.37091,215.93357l-4.7096-2.7192c-.3782-.2183-.3308-.5996.1059-.8517l4.6665-2.6943a1.64009,1.64009,0,0,1,1.4753-.0611l4.7097,2.7191c.3781.2183.3307.5997-.106.8518l-4.6665,2.6942A1.6398,1.6398,0,0,1,272.37091,215.93357Z" transform="translate(-174.04435 -76.5446)"/><path class="cls-5" d="M279.81271,211.637l-4.7096-2.7191c-.3782-.2183-.3308-.5997.1059-.8518l1.5426-.8906a1.63981,1.63981,0,0,1,1.4753-.0612l4.7097,2.7192c.3781.2183.3307.5996-.1059.8517l-1.5427.8907A1.63946,1.63946,0,0,1,279.81271,211.637Z" transform="translate(-174.04435 -76.5446)"/><path class="cls-5" d="M289.257,217.08967l-4.7097-2.7192c-.3781-.2183-.3307-.5996.1059-.8517l1.5427-.8907a1.63946,1.63946,0,0,1,1.4753-.0611l4.7096,2.7191c.3782.2183.3308.5997-.1059.8518l-1.5426.8906A1.63981,1.63981,0,0,1,289.257,217.08967Z" transform="translate(-174.04435 -76.5446)"/><path class="cls-5" d="M296.46381,221.25047l-4.7097-2.7191c-.3781-.2183-.3307-.5997.1059-.8518l1.5427-.8906a1.6398,1.6398,0,0,1,1.4753-.0612l4.7096,2.7192c.3782.2183.3308.5996-.1059.8517l-1.5426.8907A1.63979,1.63979,0,0,1,296.46381,221.25047Z" transform="translate(-174.04435 -76.5446)"/><path class="cls-5" d="M303.67061,225.41137l-4.7097-2.7192c-.3781-.2183-.3307-.5996.1059-.8517l1.5427-.8907a1.63978,1.63978,0,0,1,1.4753-.0611l4.7097,2.7191c.3781.2183.3307.5997-.106.8518l-1.5426.8906A1.63981,1.63981,0,0,1,303.67061,225.41137Z" transform="translate(-174.04435 -76.5446)"/><path class="cls-5" d="M310.87741,229.57217l-4.7097-2.7191c-.3781-.2183-.3307-.5997.106-.8518l1.5426-.8906a1.63981,1.63981,0,0,1,1.4753-.0612l4.7097,2.7192c.3781.2183.3307.5996-.106.8517l-1.5426.8907A1.63947,1.63947,0,0,1,310.87741,229.57217Z" transform="translate(-174.04435 -76.5446)"/><path class="cls-5" d="M351.11191,252.80157l-4.7097-2.7191c-.3781-.2183-.3307-.5997.106-.8518l1.5426-.8906a1.63981,1.63981,0,0,1,1.4753-.0612l4.7097,2.7192c.3781.2183.3307.5996-.1059.8517l-1.5427.8907A1.63946,1.63946,0,0,1,351.11191,252.80157Z" transform="translate(-174.04435 -76.5446)"/><path class="cls-5" d="M358.31871,256.96247l-4.7096-2.7191c-.3782-.2184-.3308-.5997.1059-.8518l1.5426-.8906a1.63981,1.63981,0,0,1,1.4753-.0612l4.7097,2.7191c.3781.2183.3307.5997-.1059.8518l-1.5427.8906A1.6398,1.6398,0,0,1,358.31871,256.96247Z" transform="translate(-174.04435 -76.5446)"/><path class="cls-5" d="M365.52551,261.12327l-4.7096-2.7191c-.3782-.2183-.3307-.5997.1059-.8517l1.5426-.8907a1.63948,1.63948,0,0,1,1.4753-.0611l4.7097,2.7191c.3782.2183.3307.5997-.1059.8517l-1.5427.8907A1.63946,1.63946,0,0,1,365.52551,261.12327Z" transform="translate(-174.04435 -76.5446)"/><path class="cls-5" d="M372.73241,265.28417l-4.7097-2.7191c-.3782-.2183-.3307-.5997.1059-.8518l1.5426-.8906a1.64,1.64,0,0,1,1.4754-.0612l4.7096,2.7191c.3782.2184.3307.5997-.1059.8518l-1.5426.8906A1.63981,1.63981,0,0,1,372.73241,265.28417Z" transform="translate(-174.04435 -76.5446)"/><path class="cls-5" d="M301.355,232.66747l-4.7097-2.7191c-.3781-.2184-.3307-.5997.1059-.8518l4.6665-2.6942a1.63981,1.63981,0,0,1,1.4753-.0612l4.7097,2.7192c.3782.2183.3307.5996-.1059.8517l-4.6665,2.6942A1.63981,1.63981,0,0,1,301.355,232.66747Z" transform="translate(-174.04435 -76.5446)"/><path class="cls-5" d="M308.62811,236.86667l-4.7096-2.7192c-.3782-.2183-.3308-.5996.1059-.8517l4.6665-2.6942a1.6398,1.6398,0,0,1,1.4753-.0612l4.7097,2.7191c.3781.2183.3307.5997-.106.8518l-4.6665,2.6942A1.6398,1.6398,0,0,1,308.62811,236.86667Z" transform="translate(-174.04435 -76.5446)"/><path class="cls-5" d="M315.90131,241.06577l-4.7097-2.7191c-.3781-.2183-.3307-.5997.1059-.8518l4.6665-2.6942a1.63948,1.63948,0,0,1,1.4753-.0611l4.7097,2.7191c.3782.2183.3307.5997-.1059.8517l-4.6665,2.6943A1.63979,1.63979,0,0,1,315.90131,241.06577Z" transform="translate(-174.04435 -76.5446)"/><path class="cls-5" d="M323.17441,245.265l-4.7096-2.7192c-.3782-.2183-.3308-.5996.1059-.8517l4.6665-2.6942a1.6398,1.6398,0,0,1,1.4753-.0612l4.7097,2.7191c.3781.2184.3307.5997-.106.8518l-4.6665,2.6942A1.6398,1.6398,0,0,1,323.17441,245.265Z" transform="translate(-174.04435 -76.5446)"/><path class="cls-5" d="M330.44761,249.46407l-4.7097-2.7191c-.3781-.2183-.3307-.5997.1059-.8518l4.6665-2.6942a1.63948,1.63948,0,0,1,1.4753-.0611l4.7097,2.7191c.3782.2183.3307.5997-.1059.8518l-4.6665,2.6942A1.63979,1.63979,0,0,1,330.44761,249.46407Z" transform="translate(-174.04435 -76.5446)"/><path class="cls-5" d="M337.72071,253.66327l-4.7096-2.7192c-.3782-.2183-.3308-.5996.1059-.8517l4.6665-2.6942a1.63981,1.63981,0,0,1,1.4753-.0612l4.7097,2.7191c.3781.2184.3307.5997-.106.8518l-4.6665,2.6942A1.6398,1.6398,0,0,1,337.72071,253.66327Z" transform="translate(-174.04435 -76.5446)"/><path class="cls-5" d="M344.99391,257.86237l-4.7097-2.7191c-.3781-.2183-.3307-.5997.1059-.8518l4.6665-2.6942a1.63979,1.63979,0,0,1,1.4753-.0611l4.7097,2.7191c.3782.2183.3307.5997-.1059.8518l-4.6665,2.6942A1.63948,1.63948,0,0,1,344.99391,257.86237Z" transform="translate(-174.04435 -76.5446)"/><path class="cls-5" d="M352.267,262.06157l-4.7096-2.7191c-.3782-.2184-.3308-.5997.1059-.8518l4.6665-2.6942a1.63981,1.63981,0,0,1,1.4753-.0612l4.7097,2.7192c.3781.2183.3307.5996-.106.8517l-4.6665,2.6942A1.6398,1.6398,0,0,1,352.267,262.06157Z" transform="translate(-174.04435 -76.5446)"/><path class="cls-5" d="M359.54021,266.26067l-4.7097-2.7191c-.3781-.2183-.3307-.5997.1059-.8518l4.6665-2.6942a1.63979,1.63979,0,0,1,1.4753-.0611l4.7097,2.7191c.3782.2183.3307.5997-.1059.8518l-4.6665,2.6942A1.63948,1.63948,0,0,1,359.54021,266.26067Z" transform="translate(-174.04435 -76.5446)"/><path class="cls-5" d="M259.77321,233.18587l-13.8705-8.0081c-.3781-.2183-.3307-.5996.106-.8517l4.6665-2.6942a1.6398,1.6398,0,0,1,1.4753-.0612l13.8704,8.0081c.3782.2183.3308.5997-.1059.8518l-4.6665,2.6942A1.63947,1.63947,0,0,1,259.77321,233.18587Z" transform="translate(-174.04435 -76.5446)"/><path class="cls-5" d="M349.12561,284.77357l-13.8705-8.0081c-.3781-.2184-.3307-.5997.106-.8518l4.6665-2.6942a1.6398,1.6398,0,0,1,1.4753-.0612l13.8704,8.0081c.3782.2184.3308.5997-.1059.8518l-4.6665,2.6942A1.6398,1.6398,0,0,1,349.12561,284.77357Z" transform="translate(-174.04435 -76.5446)"/><path class="cls-5" d="M320.03931,277.256l-4.7097-2.7191c-.3781-.2183-.3307-.5997.1059-.8517l5.5591-3.2096a1.63978,1.63978,0,0,1,1.4753-.0611l4.7096,2.7191c.3782.2183.3308.5997-.1059.8518l-5.559,3.2095A1.63948,1.63948,0,0,1,320.03931,277.256Z" transform="translate(-174.04435 -76.5446)"/><path class="cls-5" d="M267.22151,246.76167l-7.5321-4.3487c-.3781-.2183-.3307-.5996.1059-.8517l5.5591-3.2095a1.6398,1.6398,0,0,1,1.4753-.0612l7.532,4.3486c.3782.2184.3308.5997-.1059.8518l-5.559,3.2095A1.63981,1.63981,0,0,1,267.22151,246.76167Z" transform="translate(-174.04435 -76.5446)"/><path class="cls-5" d="M313.03151,273.21007l-7.5321-4.3487c-.3782-.2183-.3307-.5996.1059-.8517l5.5591-3.2095a1.6398,1.6398,0,0,1,1.4753-.0612l7.532,4.3487c.3782.2183.3308.5996-.1059.8517l-5.559,3.2095A1.63981,1.63981,0,0,1,313.03151,273.21007Z" transform="translate(-174.04435 -76.5446)"/><path class="cls-5" d="M277.71511,252.82017l-7.5321-4.3487c-.3781-.2183-.3307-.5997.1059-.8518l5.5591-3.2095a1.63978,1.63978,0,0,1,1.4753-.0611l7.532,4.3486c.3782.2184.3308.5997-.1059.8518l-5.559,3.2095A1.63981,1.63981,0,0,1,277.71511,252.82017Z" transform="translate(-174.04435 -76.5446)"/><path class="cls-5" d="M277.37431,244.37857l32.7473,18.9066a.44844.44844,0,0,1,0,.8496l-5.6688,3.2729a1.62628,1.62628,0,0,1-1.4715-.0001l-32.7472-18.9066Z" transform="translate(-174.04435 -76.5446)"/><path class="cls-5" d="M340.36651,284.86957l5.2461,3.0288c.31.179.2711.4915-.0868.6982l-2.274,1.3129a1.34408,1.34408,0,0,1-1.2093.0501l-5.2461-3.0288c-.3099-.179-.2711-.4915.0868-.6982l2.2741-1.3129A1.34388,1.34388,0,0,1,340.36651,284.86957Z" transform="translate(-174.04435 -76.5446)"/><path class="cls-5" d="M333.03311,280.63557l5.2461,3.0288c.3099.179.2711.4916-.0868.6982l-2.2741,1.3129a1.34377,1.34377,0,0,1-1.2093.0501l-5.246-3.0288c-.31-.1789-.2711-.4915.0868-.6982l2.274-1.3129A1.34408,1.34408,0,0,1,333.03311,280.63557Z" transform="translate(-174.04435 -76.5446)"/><path class="cls-5" d="M325.75991,276.43637l5.2461,3.0289c.31.1789.2711.4915-.0868.6981l-2.274,1.313a1.3444,1.3444,0,0,1-1.2093.0501l-5.2461-3.0288c-.3099-.179-.2711-.4916.0868-.6982l2.2741-1.3129A1.3439,1.3439,0,0,1,325.75991,276.43637Z" transform="translate(-174.04435 -76.5446)"/><path class="cls-5" d="M337.04951,278.31667l5.2461,3.0289c.3099.1789.2711.4915-.0868.6981l-2.2741,1.3129a1.34411,1.34411,0,0,1-1.2093.0502l-5.246-3.0289c-.31-.1789-.2711-.4915.0868-.6981l2.274-1.3129A1.34411,1.34411,0,0,1,337.04951,278.31667Z" transform="translate(-174.04435 -76.5446)"/></g><g class="cls-6"><path class="cls-5" d="M242.57961,232.53467l-4.7097-2.7191c-.3781-.2184-.3307-.5997.106-.8518l5.559-3.2095a1.63981,1.63981,0,0,1,1.4753-.0612l4.7097,2.7192c.3781.2183.3307.5996-.1059.8517l-5.5591,3.2095A1.6398,1.6398,0,0,1,242.57961,232.53467Z" transform="translate(-174.04435 -76.5446)"/><path class="cls-5" d="M249.85281,236.73377l-4.7097-2.7191c-.3782-.2183-.3307-.5997.1059-.8517l5.5591-3.2096a1.63978,1.63978,0,0,1,1.4753-.0611l4.7096,2.7191c.3782.2183.3307.5997-.1059.8518l-5.559,3.2095A1.63948,1.63948,0,0,1,249.85281,236.73377Z" transform="translate(-174.04435 -76.5446)"/><path class="cls-5" d="M257.12591,240.933l-4.7097-2.7191c-.3781-.2183-.3307-.5997.106-.8518l5.559-3.2095a1.63981,1.63981,0,0,1,1.4753-.0612l4.7097,2.7192c.3781.2183.3307.5996-.1059.8517l-5.5591,3.2095A1.6398,1.6398,0,0,1,257.12591,240.933Z" transform="translate(-174.04435 -76.5446)"/><path class="cls-5" d="M267.18511,237.46517l-4.7097-2.7191c-.3782-.2184-.3307-.5997.1059-.8518l4.6665-2.6942a1.63981,1.63981,0,0,1,1.4753-.0612l4.7097,2.7192c.3781.2183.3307.5996-.1059.8517l-4.6665,2.6942A1.63981,1.63981,0,0,1,267.18511,237.46517Z" transform="translate(-174.04435 -76.5446)"/><path class="cls-5" d="M274.45821,241.66427l-4.7097-2.7191c-.3781-.2183-.3307-.5997.106-.8518l4.6665-2.6942a1.63978,1.63978,0,0,1,1.4753-.0611l4.7096,2.7191c.3782.2183.3308.5997-.1059.8518l-4.6665,2.6942A1.63946,1.63946,0,0,1,274.45821,241.66427Z" transform="translate(-174.04435 -76.5446)"/><path class="cls-5" d="M281.73141,245.86347l-4.7097-2.7191c-.3782-.2184-.3307-.5997.1059-.8518l4.6665-2.6942a1.63981,1.63981,0,0,1,1.4753-.0612l4.7097,2.7192c.3781.2183.3307.5996-.1059.8517l-4.6665,2.6942A1.63981,1.63981,0,0,1,281.73141,245.86347Z" transform="translate(-174.04435 -76.5446)"/><path class="cls-5" d="M289.00451,250.06257l-4.7097-2.7191c-.3781-.2183-.3307-.5997.106-.8517l4.6665-2.6943a1.63978,1.63978,0,0,1,1.4753-.0611l4.7096,2.7191c.3782.2183.3308.5997-.1059.8518l-4.6665,2.6942A1.63946,1.63946,0,0,1,289.00451,250.06257Z" transform="translate(-174.04435 -76.5446)"/><path class="cls-5" d="M296.27771,254.26177l-4.7097-2.7191c-.3781-.2183-.3307-.5997.1059-.8518l4.6665-2.6942a1.63981,1.63981,0,0,1,1.4753-.0612l4.7097,2.7192c.3781.2183.3307.5996-.1059.8517l-4.6665,2.6942A1.63981,1.63981,0,0,1,296.27771,254.26177Z" transform="translate(-174.04435 -76.5446)"/><path class="cls-5" d="M303.55081,258.461l-4.7097-2.7192c-.3781-.2183-.3307-.5996.106-.8517l4.6665-2.6942a1.6398,1.6398,0,0,1,1.4753-.0612l4.7096,2.7191c.3782.2184.3308.5997-.1059.8518l-4.6665,2.6942A1.6398,1.6398,0,0,1,303.55081,258.461Z" transform="translate(-174.04435 -76.5446)"/><path class="cls-5" d="M310.824,262.66007l-4.7097-2.7191c-.3781-.2183-.3307-.5997.1059-.8518l4.6665-2.6942a1.63948,1.63948,0,0,1,1.4753-.0611l4.7097,2.7191c.3781.2183.3307.5997-.1059.8518l-4.6665,2.6942A1.63979,1.63979,0,0,1,310.824,262.66007Z" transform="translate(-174.04435 -76.5446)"/><path class="cls-5" d="M318.09711,266.85927l-4.7097-2.7192c-.3781-.2183-.3307-.5996.106-.8517l4.6665-2.6942a1.6398,1.6398,0,0,1,1.4753-.0612l4.7096,2.7191c.3782.2184.3308.5997-.1059.8518l-4.6665,2.6942A1.6398,1.6398,0,0,1,318.09711,266.85927Z" transform="translate(-174.04435 -76.5446)"/><path class="cls-5" d="M325.37031,271.05837l-4.7097-2.7191c-.3781-.2183-.3307-.5997.1059-.8518l4.6665-2.6942a1.63948,1.63948,0,0,1,1.4753-.0611l4.7097,2.7191c.3781.2183.3307.5997-.1059.8518l-4.6665,2.6942A1.63979,1.63979,0,0,1,325.37031,271.05837Z" transform="translate(-174.04435 -76.5446)"/><path class="cls-5" d="M332.64341,275.25757l-4.7097-2.7191c-.3781-.2184-.3307-.5997.106-.8518l4.6665-2.6942a1.6398,1.6398,0,0,1,1.4753-.0612l4.7097,2.7192c.3781.2183.3307.5996-.106.8517l-4.6665,2.6942A1.6398,1.6398,0,0,1,332.64341,275.25757Z" transform="translate(-174.04435 -76.5446)"/><path class="cls-5" d="M277.90161,235.47707l-4.7097-2.7191c-.3781-.2183-.3307-.5997.1059-.8518l4.6666-2.6942a1.63978,1.63978,0,0,1,1.4753-.0611l4.7096,2.7191c.3782.2183.3307.5997-.1059.8518l-4.6665,2.6942A1.63947,1.63947,0,0,1,277.90161,235.47707Z" transform="translate(-174.04435 -76.5446)"/><path class="cls-5" d="M270.51991,231.21527l-4.7097-2.7191c-.3781-.2183-.3307-.5997.1059-.8518l4.6665-2.6942a1.63948,1.63948,0,0,1,1.4753-.0611l4.7097,2.7191c.3782.2183.3307.5997-.1059.8518l-4.6665,2.6942A1.63979,1.63979,0,0,1,270.51991,231.21527Z" transform="translate(-174.04435 -76.5446)"/><path class="cls-5" d="M263.12611,226.94647l-10.1434-5.8563c-.3781-.2183-.3307-.5997.1059-.8518l4.6665-2.6942a1.63979,1.63979,0,0,1,1.4753-.0611l10.1435,5.8563c.3781.2183.3307.5997-.106.8518l-4.6665,2.6942A1.63978,1.63978,0,0,1,263.12611,226.94647Z" transform="translate(-174.04435 -76.5446)"/><path class="cls-5" d="M268.29431,221.75507l-8.2316-4.7525c-.3782-.2183-.3308-.5997.1059-.8518l4.6665-2.6942a1.63946,1.63946,0,0,1,1.4753-.0611l8.2316,4.7525c.3782.2183.3308.5997-.1059.8518l-4.6665,2.6942A1.63946,1.63946,0,0,1,268.29431,221.75507Z" transform="translate(-174.04435 -76.5446)"/><path class="cls-5" d="M285.17471,239.67627l-4.7096-2.7191c-.3782-.2184-.3307-.5997.1059-.8518l4.6665-2.6942a1.63981,1.63981,0,0,1,1.4753-.0612l4.7097,2.7192c.3781.2183.3307.5996-.1059.8517l-4.6666,2.6942A1.6398,1.6398,0,0,1,285.17471,239.67627Z" transform="translate(-174.04435 -76.5446)"/><path class="cls-5" d="M292.44791,243.87547l-4.7097-2.7192c-.3781-.2183-.3307-.5996.1059-.8517l4.6666-2.6943a1.64009,1.64009,0,0,1,1.4753-.0611l4.7096,2.7191c.3782.2183.3307.5997-.1059.8518l-4.6665,2.6942A1.63981,1.63981,0,0,1,292.44791,243.87547Z" transform="translate(-174.04435 -76.5446)"/><path class="cls-5" d="M299.721,248.07457l-4.7096-2.7191c-.3782-.2183-.3307-.5997.1059-.8518l4.6665-2.6942a1.63947,1.63947,0,0,1,1.4753-.0611l4.7097,2.7191c.3781.2183.3307.5997-.1059.8517l-4.6665,2.6943A1.64,1.64,0,0,1,299.721,248.07457Z" transform="translate(-174.04435 -76.5446)"/><path class="cls-5" d="M306.99421,252.27377l-4.7097-2.7192c-.3781-.2183-.3307-.5996.1059-.8517l4.6666-2.6942a1.6398,1.6398,0,0,1,1.4753-.0612l4.7096,2.7191c.3782.2184.3308.5997-.1059.8518l-4.6665,2.6942A1.63981,1.63981,0,0,1,306.99421,252.27377Z" transform="translate(-174.04435 -76.5446)"/><path class="cls-5" d="M314.26741,256.47287l-4.7097-2.7191c-.3782-.2183-.3307-.5997.1059-.8518l4.6665-2.6942a1.63948,1.63948,0,0,1,1.4753-.0611l4.7097,2.7191c.3781.2183.3307.5997-.1059.8518l-4.6665,2.6942A1.63979,1.63979,0,0,1,314.26741,256.47287Z" transform="translate(-174.04435 -76.5446)"/><path class="cls-5" d="M321.54051,260.67207l-4.7097-2.7192c-.3781-.2183-.3307-.5996.106-.8517l4.6665-2.6942a1.6398,1.6398,0,0,1,1.4753-.0612l4.7096,2.7191c.3782.2184.3308.5997-.1059.8518l-4.6665,2.6942A1.63981,1.63981,0,0,1,321.54051,260.67207Z" transform="translate(-174.04435 -76.5446)"/><path class="cls-5" d="M328.81371,264.87117l-4.7097-2.7191c-.3782-.2183-.3307-.5997.1059-.8518l4.6665-2.6942a1.63979,1.63979,0,0,1,1.4753-.0611l4.7097,2.7191c.3781.2183.3307.5997-.1059.8518l-4.6665,2.6942A1.63948,1.63948,0,0,1,328.81371,264.87117Z" transform="translate(-174.04435 -76.5446)"/><path class="cls-5" d="M336.08681,269.07037l-4.7097-2.7191c-.3781-.2184-.3307-.5997.106-.8518l4.6665-2.6942a1.6398,1.6398,0,0,1,1.4753-.0612l4.7096,2.7192c.3782.2183.3308.5996-.1059.8517l-4.6665,2.6942A1.63981,1.63981,0,0,1,336.08681,269.07037Z" transform="translate(-174.04435 -76.5446)"/><path class="cls-5" d="M343.36,273.26947l-4.7097-2.7191c-.3782-.2183-.3307-.5997.1059-.8518l4.6665-2.6942a1.63979,1.63979,0,0,1,1.4753-.0611l4.7097,2.7191c.3781.2183.3307.5997-.1059.8518l-4.6665,2.6942A1.63948,1.63948,0,0,1,343.36,273.26947Z" transform="translate(-174.04435 -76.5446)"/><path class="cls-5" d="M356.29,280.73467l-10.2761-5.9329c-.3781-.2183-.3307-.5997.1059-.8518l4.6665-2.6942a1.63948,1.63948,0,0,1,1.4753-.0611l10.2761,5.9329c.3782.2183.3308.5997-.1059.8517l-4.6665,2.6943A1.63978,1.63978,0,0,1,356.29,280.73467Z" transform="translate(-174.04435 -76.5446)"/><path class="cls-5" d="M370.44991,272.55947l-8.6734-5.0076c-.3781-.2183-.3307-.5997.1059-.8518l4.6665-2.6942a1.63981,1.63981,0,0,1,1.4753-.0612l8.6734,5.0076c.3782.2184.3308.5997-.1059.8518l-4.6665,2.6942A1.6398,1.6398,0,0,1,370.44991,272.55947Z" transform="translate(-174.04435 -76.5446)"/><path class="cls-5" d="M297.91161,238.85467l-4.7097-2.7191c-.3781-.2184-.3307-.5997.1059-.8518l4.6666-2.6942a1.6398,1.6398,0,0,1,1.4753-.0612l4.7096,2.7192c.3782.2183.3308.5996-.1059.8517l-4.6665,2.6942A1.63981,1.63981,0,0,1,297.91161,238.85467Z" transform="translate(-174.04435 -76.5446)"/><path class="cls-5" d="M290.45751,234.55107l-4.7096-2.7191c-.3782-.2184-.3308-.5997.1059-.8518l4.6665-2.6942a1.6398,1.6398,0,0,1,1.4753-.0612l4.7097,2.7192c.3781.2183.3307.5996-.106.8517l-4.6665,2.6942A1.6398,1.6398,0,0,1,290.45751,234.55107Z" transform="translate(-174.04435 -76.5446)"/><path class="cls-5" d="M283.00341,230.24747l-4.7096-2.7192c-.3782-.2183-.3307-.5996.1059-.8517l4.6665-2.6942a1.63981,1.63981,0,0,1,1.4753-.0612l4.7097,2.7191c.3781.2184.3307.5997-.1059.8518l-4.6665,2.6942A1.64,1.64,0,0,1,283.00341,230.24747Z" transform="translate(-174.04435 -76.5446)"/><path class="cls-5" d="M275.54941,225.94387l-4.7097-2.7192c-.3781-.2183-.3307-.5996.1059-.8517l4.6665-2.6942a1.63981,1.63981,0,0,1,1.4753-.0612l4.7097,2.7191c.3781.2183.3307.5997-.1059.8518l-4.6665,2.6942A1.63981,1.63981,0,0,1,275.54941,225.94387Z" transform="translate(-174.04435 -76.5446)"/><path class="cls-5" d="M305.18481,243.05377l-4.7097-2.7191c-.3782-.2183-.3307-.5997.1059-.8517l4.6665-2.6943a1.63979,1.63979,0,0,1,1.4753-.0611l4.7097,2.7191c.3781.2183.3307.5997-.1059.8518l-4.6665,2.6942A1.63948,1.63948,0,0,1,305.18481,243.05377Z" transform="translate(-174.04435 -76.5446)"/><path class="cls-5" d="M312.45791,247.253l-4.7097-2.7191c-.3781-.2183-.3307-.5997.106-.8518l4.6665-2.6942a1.6398,1.6398,0,0,1,1.4753-.0612l4.7096,2.7192c.3782.2183.3308.5996-.1059.8517l-4.6665,2.6943A1.6401,1.6401,0,0,1,312.45791,247.253Z" transform="translate(-174.04435 -76.5446)"/><path class="cls-5" d="M319.73111,251.45217l-4.7097-2.7192c-.3782-.2183-.3307-.5996.1059-.8517l4.6665-2.6942a1.63981,1.63981,0,0,1,1.4753-.0612l4.7097,2.7191c.3781.2184.3307.5997-.1059.8518l-4.6665,2.6942A1.63981,1.63981,0,0,1,319.73111,251.45217Z" transform="translate(-174.04435 -76.5446)"/><path class="cls-5" d="M327.00421,255.65127l-4.7097-2.7191c-.3781-.2183-.3307-.5997.106-.8518l4.6665-2.6942a1.63946,1.63946,0,0,1,1.4753-.0611l4.7096,2.7191c.3782.2183.3308.5997-.1059.8518l-4.6665,2.6942A1.63978,1.63978,0,0,1,327.00421,255.65127Z" transform="translate(-174.04435 -76.5446)"/><path class="cls-5" d="M334.27741,259.85047l-4.7097-2.7192c-.3782-.2183-.3307-.5996.1059-.8517l4.6665-2.6942a1.63981,1.63981,0,0,1,1.4753-.0612l4.7097,2.7191c.3781.2184.3307.5997-.1059.8518l-4.6665,2.6942A1.63981,1.63981,0,0,1,334.27741,259.85047Z" transform="translate(-174.04435 -76.5446)"/><path class="cls-5" d="M341.55051,264.04957l-4.7097-2.7191c-.3781-.2183-.3307-.5997.106-.8518l4.6665-2.6942a1.63946,1.63946,0,0,1,1.4753-.0611l4.7096,2.7191c.3782.2183.3308.5997-.1059.8518l-4.6665,2.6942A1.63978,1.63978,0,0,1,341.55051,264.04957Z" transform="translate(-174.04435 -76.5446)"/><path class="cls-5" d="M348.82371,268.24877l-4.7097-2.7191c-.3782-.2184-.3307-.5997.1059-.8518l4.6665-2.6942a1.63981,1.63981,0,0,1,1.4753-.0612l4.7097,2.7192c.3781.2183.3307.5996-.1059.8517l-4.6665,2.6942A1.63981,1.63981,0,0,1,348.82371,268.24877Z" transform="translate(-174.04435 -76.5446)"/><path class="cls-5" d="M356.09681,272.44787l-4.7097-2.7191c-.3781-.2183-.3307-.5997.106-.8518l4.6665-2.6942a1.63978,1.63978,0,0,1,1.4753-.0611l4.7096,2.7191c.3782.2183.3308.5997-.1059.8518l-4.6665,2.6942A1.63946,1.63946,0,0,1,356.09681,272.44787Z" transform="translate(-174.04435 -76.5446)"/><path class="cls-5" d="M363.37,276.64707l-4.7097-2.7191c-.3782-.2184-.3307-.5997.1059-.8518l4.6665-2.6942a1.63981,1.63981,0,0,1,1.4753-.0612l4.7097,2.7192c.3781.2183.3307.5996-.1059.8517l-4.6665,2.6942A1.63981,1.63981,0,0,1,363.37,276.64707Z" transform="translate(-174.04435 -76.5446)"/><path class="cls-5" d="M294.08181,228.46827l-4.7096-2.7191c-.3782-.2183-.3308-.5997.1059-.8518l4.6665-2.6942a1.63978,1.63978,0,0,1,1.4753-.0611l4.7097,2.7191c.3781.2183.3307.5997-.106.8518l-4.6665,2.6942A1.63946,1.63946,0,0,1,294.08181,228.46827Z" transform="translate(-174.04435 -76.5446)"/><path class="cls-5" d="M286.84491,224.29007l-4.7097-2.7191c-.3782-.2184-.3307-.5997.1059-.8518l4.6665-2.6942a1.63981,1.63981,0,0,1,1.4753-.0612l4.7097,2.7192c.3781.2183.3307.5996-.1059.8517l-4.6665,2.6942A1.63981,1.63981,0,0,1,286.84491,224.29007Z" transform="translate(-174.04435 -76.5446)"/><path class="cls-5" d="M279.60791,220.11177l-4.7097-2.7191c-.3781-.2183-.3307-.5997.1059-.8518l4.6666-2.6942a1.63946,1.63946,0,0,1,1.4753-.0611l4.7096,2.7191c.3782.2183.3307.5997-.1059.8518l-4.6665,2.6942A1.63978,1.63978,0,0,1,279.60791,220.11177Z" transform="translate(-174.04435 -76.5446)"/><path class="cls-5" d="M272.37091,215.93357l-4.7096-2.7192c-.3782-.2183-.3308-.5996.1059-.8517l4.6665-2.6943a1.64009,1.64009,0,0,1,1.4753-.0611l4.7097,2.7191c.3781.2183.3307.5997-.106.8518l-4.6665,2.6942A1.6398,1.6398,0,0,1,272.37091,215.93357Z" transform="translate(-174.04435 -76.5446)"/><path class="cls-5" d="M279.81271,211.637l-4.7096-2.7191c-.3782-.2183-.3308-.5997.1059-.8518l1.5426-.8906a1.63981,1.63981,0,0,1,1.4753-.0612l4.7097,2.7192c.3781.2183.3307.5996-.1059.8517l-1.5427.8907A1.63946,1.63946,0,0,1,279.81271,211.637Z" transform="translate(-174.04435 -76.5446)"/><path class="cls-5" d="M289.257,217.08967l-4.7097-2.7192c-.3781-.2183-.3307-.5996.1059-.8517l1.5427-.8907a1.63946,1.63946,0,0,1,1.4753-.0611l4.7096,2.7191c.3782.2183.3308.5997-.1059.8518l-1.5426.8906A1.63981,1.63981,0,0,1,289.257,217.08967Z" transform="translate(-174.04435 -76.5446)"/><path class="cls-5" d="M296.46381,221.25047l-4.7097-2.7191c-.3781-.2183-.3307-.5997.1059-.8518l1.5427-.8906a1.6398,1.6398,0,0,1,1.4753-.0612l4.7096,2.7192c.3782.2183.3308.5996-.1059.8517l-1.5426.8907A1.63979,1.63979,0,0,1,296.46381,221.25047Z" transform="translate(-174.04435 -76.5446)"/><path class="cls-5" d="M303.67061,225.41137l-4.7097-2.7192c-.3781-.2183-.3307-.5996.1059-.8517l1.5427-.8907a1.63978,1.63978,0,0,1,1.4753-.0611l4.7097,2.7191c.3781.2183.3307.5997-.106.8518l-1.5426.8906A1.63981,1.63981,0,0,1,303.67061,225.41137Z" transform="translate(-174.04435 -76.5446)"/><path class="cls-5" d="M310.87741,229.57217l-4.7097-2.7191c-.3781-.2183-.3307-.5997.106-.8518l1.5426-.8906a1.63981,1.63981,0,0,1,1.4753-.0612l4.7097,2.7192c.3781.2183.3307.5996-.106.8517l-1.5426.8907A1.63947,1.63947,0,0,1,310.87741,229.57217Z" transform="translate(-174.04435 -76.5446)"/><path class="cls-5" d="M351.11191,252.80157l-4.7097-2.7191c-.3781-.2183-.3307-.5997.106-.8518l1.5426-.8906a1.63981,1.63981,0,0,1,1.4753-.0612l4.7097,2.7192c.3781.2183.3307.5996-.1059.8517l-1.5427.8907A1.63946,1.63946,0,0,1,351.11191,252.80157Z" transform="translate(-174.04435 -76.5446)"/><path class="cls-5" d="M358.31871,256.96247l-4.7096-2.7191c-.3782-.2184-.3308-.5997.1059-.8518l1.5426-.8906a1.63981,1.63981,0,0,1,1.4753-.0612l4.7097,2.7191c.3781.2183.3307.5997-.1059.8518l-1.5427.8906A1.6398,1.6398,0,0,1,358.31871,256.96247Z" transform="translate(-174.04435 -76.5446)"/><path class="cls-5" d="M365.52551,261.12327l-4.7096-2.7191c-.3782-.2183-.3307-.5997.1059-.8517l1.5426-.8907a1.63948,1.63948,0,0,1,1.4753-.0611l4.7097,2.7191c.3782.2183.3307.5997-.1059.8517l-1.5427.8907A1.63946,1.63946,0,0,1,365.52551,261.12327Z" transform="translate(-174.04435 -76.5446)"/><path class="cls-5" d="M372.73241,265.28417l-4.7097-2.7191c-.3782-.2183-.3307-.5997.1059-.8518l1.5426-.8906a1.64,1.64,0,0,1,1.4754-.0612l4.7096,2.7191c.3782.2184.3307.5997-.1059.8518l-1.5426.8906A1.63981,1.63981,0,0,1,372.73241,265.28417Z" transform="translate(-174.04435 -76.5446)"/><path class="cls-5" d="M301.355,232.66747l-4.7097-2.7191c-.3781-.2184-.3307-.5997.1059-.8518l4.6665-2.6942a1.63981,1.63981,0,0,1,1.4753-.0612l4.7097,2.7192c.3782.2183.3307.5996-.1059.8517l-4.6665,2.6942A1.63981,1.63981,0,0,1,301.355,232.66747Z" transform="translate(-174.04435 -76.5446)"/><path class="cls-5" d="M308.62811,236.86667l-4.7096-2.7192c-.3782-.2183-.3308-.5996.1059-.8517l4.6665-2.6942a1.6398,1.6398,0,0,1,1.4753-.0612l4.7097,2.7191c.3781.2183.3307.5997-.106.8518l-4.6665,2.6942A1.6398,1.6398,0,0,1,308.62811,236.86667Z" transform="translate(-174.04435 -76.5446)"/><path class="cls-5" d="M315.90131,241.06577l-4.7097-2.7191c-.3781-.2183-.3307-.5997.1059-.8518l4.6665-2.6942a1.63948,1.63948,0,0,1,1.4753-.0611l4.7097,2.7191c.3782.2183.3307.5997-.1059.8517l-4.6665,2.6943A1.63979,1.63979,0,0,1,315.90131,241.06577Z" transform="translate(-174.04435 -76.5446)"/><path class="cls-5" d="M323.17441,245.265l-4.7096-2.7192c-.3782-.2183-.3308-.5996.1059-.8517l4.6665-2.6942a1.6398,1.6398,0,0,1,1.4753-.0612l4.7097,2.7191c.3781.2184.3307.5997-.106.8518l-4.6665,2.6942A1.6398,1.6398,0,0,1,323.17441,245.265Z" transform="translate(-174.04435 -76.5446)"/><path class="cls-5" d="M330.44761,249.46407l-4.7097-2.7191c-.3781-.2183-.3307-.5997.1059-.8518l4.6665-2.6942a1.63948,1.63948,0,0,1,1.4753-.0611l4.7097,2.7191c.3782.2183.3307.5997-.1059.8518l-4.6665,2.6942A1.63979,1.63979,0,0,1,330.44761,249.46407Z" transform="translate(-174.04435 -76.5446)"/><path class="cls-5" d="M337.72071,253.66327l-4.7096-2.7192c-.3782-.2183-.3308-.5996.1059-.8517l4.6665-2.6942a1.63981,1.63981,0,0,1,1.4753-.0612l4.7097,2.7191c.3781.2184.3307.5997-.106.8518l-4.6665,2.6942A1.6398,1.6398,0,0,1,337.72071,253.66327Z" transform="translate(-174.04435 -76.5446)"/><path class="cls-5" d="M344.99391,257.86237l-4.7097-2.7191c-.3781-.2183-.3307-.5997.1059-.8518l4.6665-2.6942a1.63979,1.63979,0,0,1,1.4753-.0611l4.7097,2.7191c.3782.2183.3307.5997-.1059.8518l-4.6665,2.6942A1.63948,1.63948,0,0,1,344.99391,257.86237Z" transform="translate(-174.04435 -76.5446)"/><path class="cls-5" d="M352.267,262.06157l-4.7096-2.7191c-.3782-.2184-.3308-.5997.1059-.8518l4.6665-2.6942a1.63981,1.63981,0,0,1,1.4753-.0612l4.7097,2.7192c.3781.2183.3307.5996-.106.8517l-4.6665,2.6942A1.6398,1.6398,0,0,1,352.267,262.06157Z" transform="translate(-174.04435 -76.5446)"/><path class="cls-5" d="M359.54021,266.26067l-4.7097-2.7191c-.3781-.2183-.3307-.5997.1059-.8518l4.6665-2.6942a1.63979,1.63979,0,0,1,1.4753-.0611l4.7097,2.7191c.3782.2183.3307.5997-.1059.8518l-4.6665,2.6942A1.63948,1.63948,0,0,1,359.54021,266.26067Z" transform="translate(-174.04435 -76.5446)"/><path class="cls-5" d="M259.77321,233.18587l-13.8705-8.0081c-.3781-.2183-.3307-.5996.106-.8517l4.6665-2.6942a1.6398,1.6398,0,0,1,1.4753-.0612l13.8704,8.0081c.3782.2183.3308.5997-.1059.8518l-4.6665,2.6942A1.63947,1.63947,0,0,1,259.77321,233.18587Z" transform="translate(-174.04435 -76.5446)"/><path class="cls-5" d="M349.12561,284.77357l-13.8705-8.0081c-.3781-.2184-.3307-.5997.106-.8518l4.6665-2.6942a1.6398,1.6398,0,0,1,1.4753-.0612l13.8704,8.0081c.3782.2184.3308.5997-.1059.8518l-4.6665,2.6942A1.6398,1.6398,0,0,1,349.12561,284.77357Z" transform="translate(-174.04435 -76.5446)"/><path class="cls-5" d="M320.03931,277.256l-4.7097-2.7191c-.3781-.2183-.3307-.5997.1059-.8517l5.5591-3.2096a1.63978,1.63978,0,0,1,1.4753-.0611l4.7096,2.7191c.3782.2183.3308.5997-.1059.8518l-5.559,3.2095A1.63948,1.63948,0,0,1,320.03931,277.256Z" transform="translate(-174.04435 -76.5446)"/><path class="cls-5" d="M267.22151,246.76167l-7.5321-4.3487c-.3781-.2183-.3307-.5996.1059-.8517l5.5591-3.2095a1.6398,1.6398,0,0,1,1.4753-.0612l7.532,4.3486c.3782.2184.3308.5997-.1059.8518l-5.559,3.2095A1.63981,1.63981,0,0,1,267.22151,246.76167Z" transform="translate(-174.04435 -76.5446)"/><path class="cls-5" d="M313.03151,273.21007l-7.5321-4.3487c-.3782-.2183-.3307-.5996.1059-.8517l5.5591-3.2095a1.6398,1.6398,0,0,1,1.4753-.0612l7.532,4.3487c.3782.2183.3308.5996-.1059.8517l-5.559,3.2095A1.63981,1.63981,0,0,1,313.03151,273.21007Z" transform="translate(-174.04435 -76.5446)"/><path class="cls-5" d="M277.71511,252.82017l-7.5321-4.3487c-.3781-.2183-.3307-.5997.1059-.8518l5.5591-3.2095a1.63978,1.63978,0,0,1,1.4753-.0611l7.532,4.3486c.3782.2184.3308.5997-.1059.8518l-5.559,3.2095A1.63981,1.63981,0,0,1,277.71511,252.82017Z" transform="translate(-174.04435 -76.5446)"/><path class="cls-5" d="M277.37431,244.37857l32.7473,18.9066a.44844.44844,0,0,1,0,.8496l-5.6688,3.2729a1.62628,1.62628,0,0,1-1.4715-.0001l-32.7472-18.9066Z" transform="translate(-174.04435 -76.5446)"/><path class="cls-5" d="M340.36651,284.86957l5.2461,3.0288c.31.179.2711.4915-.0868.6982l-2.274,1.3129a1.34408,1.34408,0,0,1-1.2093.0501l-5.2461-3.0288c-.3099-.179-.2711-.4915.0868-.6982l2.2741-1.3129A1.34388,1.34388,0,0,1,340.36651,284.86957Z" transform="translate(-174.04435 -76.5446)"/><path class="cls-5" d="M333.03311,280.63557l5.2461,3.0288c.3099.179.2711.4916-.0868.6982l-2.2741,1.3129a1.34377,1.34377,0,0,1-1.2093.0501l-5.246-3.0288c-.31-.1789-.2711-.4915.0868-.6982l2.274-1.3129A1.34408,1.34408,0,0,1,333.03311,280.63557Z" transform="translate(-174.04435 -76.5446)"/><path class="cls-5" d="M325.75991,276.43637l5.2461,3.0289c.31.1789.2711.4915-.0868.6981l-2.274,1.313a1.3444,1.3444,0,0,1-1.2093.0501l-5.2461-3.0288c-.3099-.179-.2711-.4916.0868-.6982l2.2741-1.3129A1.3439,1.3439,0,0,1,325.75991,276.43637Z" transform="translate(-174.04435 -76.5446)"/><path class="cls-5" d="M337.04951,278.31667l5.2461,3.0289c.3099.1789.2711.4915-.0868.6981l-2.2741,1.3129a1.34411,1.34411,0,0,1-1.2093.0502l-5.246-3.0289c-.31-.1789-.2711-.4915.0868-.6981l2.274-1.3129A1.34411,1.34411,0,0,1,337.04951,278.31667Z" transform="translate(-174.04435 -76.5446)"/></g><path class="cls-7" d="M414.02381,269.82157,275.074,189.599a6.15413,6.15413,0,0,1-2.547-6.8653l31.4228-102.0245c.7783-2.5301,3.1805-3.5585,5.3654-2.297l138.9498,80.2227a6.154,6.154,0,0,1,2.547,6.8653l-31.4228,102.0244C418.61091,270.05467,416.20871,271.08307,414.02381,269.82157Z" transform="translate(-174.04435 -76.5446)"/><path class="cls-5" d="M412.71361,266.24877l-134.7737-77.8762a5.88933,5.88933,0,0,1-2.4374-6.5699l30.0417-97.5346a3.414,3.414,0,0,1,5.1346-2.1983l134.7736,77.8763a5.88924,5.88924,0,0,1,2.4375,6.5699l-30.0418,97.5346A3.41385,3.41385,0,0,1,412.71361,266.24877Z" transform="translate(-174.04435 -76.5446)"/><path class="cls-8" d="M412.71361,266.24877l-134.7737-77.8762a5.88933,5.88933,0,0,1-2.4374-6.5699l30.0417-97.5346a3.414,3.414,0,0,1,5.1346-2.1983l134.7736,77.8763a5.88924,5.88924,0,0,1,2.4375,6.5699l-30.0418,97.5346A3.41385,3.41385,0,0,1,412.71361,266.24877Z" transform="translate(-174.04435 -76.5446)"/><path class="cls-9" d="M412.71361,266.24877l-134.7737-77.8762a5.88933,5.88933,0,0,1-2.4374-6.5699l30.0417-97.5346a3.414,3.414,0,0,1,5.1346-2.1983l134.7736,77.8763a5.88924,5.88924,0,0,1,2.4375,6.5699l-30.0418,97.5346A3.41385,3.41385,0,0,1,412.71361,266.24877Z" transform="translate(-174.04435 -76.5446)"/><path class="cls-10" d="M405.47291,236.44237l-91.2347-52.6744a4.04092,4.04092,0,0,1-1.6724-4.5078l20.6323-66.9894a2.34243,2.34243,0,0,1,3.523-1.5083l91.2347,52.6744a4.04092,4.04092,0,0,1,1.6724,4.5078l-20.6323,66.9894A2.34241,2.34241,0,0,1,405.47291,236.44237Z" transform="translate(-174.04435 -76.5446)"/><path class="cls-11" d="M393.146,238.05927l-91.2347-52.6744a4.04077,4.04077,0,0,1-1.6724-4.5078l20.6323-66.9895a2.34235,2.34235,0,0,1,3.5229-1.5082l91.2347,52.6744a4.04068,4.04068,0,0,1,1.6724,4.5077l-20.6323,66.9895A2.34239,2.34239,0,0,1,393.146,238.05927Z" transform="translate(-174.04435 -76.5446)"/><g class="cls-12"><path class="cls-13" d="M390.98681,222.77707l-21.8389-12.5596a2.97955,2.97955,0,0,1-1.2332-3.3239l15.2139-49.3968a1.72722,1.72722,0,0,1,2.5978-1.1121l21.8388,12.5596a2.97955,2.97955,0,0,1,1.2332,3.3239l-15.2139,49.3968A1.72713,1.72713,0,0,1,390.98681,222.77707Z" transform="translate(-174.04435 -76.5446)"/></g><path class="cls-5" d="M415.62891,165.05377l-91.2349-52.6743a2.27145,2.27145,0,0,0-2.5671.0873,2.45816,2.45816,0,0,1,1.3175.3375l91.2348,52.6744a4.041,4.041,0,0,1,1.6722,4.5077l-20.6321,66.9894a2.75448,2.75448,0,0,1-.956,1.4208,2.413,2.413,0,0,0,2.2056-1.8457l20.6322-66.9894A4.04039,4.04039,0,0,0,415.62891,165.05377Z" transform="translate(-174.04435 -76.5446)"/><path class="cls-4" d="M381.96051,223.74457l-21.8388-12.5596a2.97969,2.97969,0,0,1-1.2332-3.324l15.2139-49.3967a1.72721,1.72721,0,0,1,2.5977-1.1122l21.8389,12.5596a2.97964,2.97964,0,0,1,1.2331,3.324l-15.2138,49.3967A1.7273,1.7273,0,0,1,381.96051,223.74457Z" transform="translate(-174.04435 -76.5446)"/><path class="cls-5" d="M398.539,169.91167l-21.8388-12.5595a1.66137,1.66137,0,0,0-2.0119.1759,1.88576,1.88576,0,0,1,.7619.2489l21.8388,12.5596a2.97906,2.97906,0,0,1,1.2332,3.3239l-15.2137,49.3968a2.05964,2.05964,0,0,1-.586.9361,1.75788,1.75788,0,0,0,1.8359-1.361l15.2137-49.3968A2.97921,2.97921,0,0,0,398.539,169.91167Z" transform="translate(-174.04435 -76.5446)"/><g class="cls-12"><path class="cls-13" d="M337.757,148.54187l-4.1228-2.3803a1.07528,1.07528,0,0,1-.4582-1.1855h0a.61035.61035,0,0,1,.9269-.3858l4.1228,2.3803a1.07519,1.07519,0,0,1,.4582,1.1855h0A.61035.61035,0,0,1,337.757,148.54187Z" transform="translate(-174.04435 -76.5446)"/><path class="cls-13" d="M347.57751,154.21177l-6.0791-3.5098a1.07514,1.07514,0,0,1-.4582-1.1855h0a.61035.61035,0,0,1,.9269-.3858l6.0791,3.5098a1.07514,1.07514,0,0,1,.4582,1.1855h0A.61035.61035,0,0,1,347.57751,154.21177Z" transform="translate(-174.04435 -76.5446)"/><path class="cls-13" d="M329.44251,166.89687l-4.1227-2.3802a1.07539,1.07539,0,0,1-.4583-1.1855h0a.61041.61041,0,0,1,.927-.3858l4.1228,2.3803a1.07528,1.07528,0,0,1,.4582,1.1855h0A.61038.61038,0,0,1,329.44251,166.89687Z" transform="translate(-174.04435 -76.5446)"/><path class="cls-13" d="M338.19671,171.95117l-6.0791-3.5098a1.07514,1.07514,0,0,1-.4582-1.1855h0a.61035.61035,0,0,1,.9269-.3858l6.0792,3.5098a1.07528,1.07528,0,0,1,.4582,1.1855h0A.61046.61046,0,0,1,338.19671,171.95117Z" transform="translate(-174.04435 -76.5446)"/><path class="cls-13" d="M325.407,145.27087l-2.5754-1.487a1.07534,1.07534,0,0,1-.4583-1.1855h.0001a.61035.61035,0,0,1,.9269-.3858l2.5755,1.487a1.07528,1.07528,0,0,1,.4582,1.1855h0A.61044.61044,0,0,1,325.407,145.27087Z" transform="translate(-174.04435 -76.5446)"/><path class="cls-13" d="M333.15671,153.60437l-7.8691-4.5432a1.07534,1.07534,0,0,1-.4582-1.1855h0a.61044.61044,0,0,1,.927-.3858l7.869,4.5432a1.07528,1.07528,0,0,1,.4582,1.1855h0A.61035.61035,0,0,1,333.15671,153.60437Z" transform="translate(-174.04435 -76.5446)"/><path class="cls-13" d="M325.89881,157.13247l-2.5754-1.4869a1.07519,1.07519,0,0,1-.4582-1.1855h0a.61035.61035,0,0,1,.9269-.3858l2.5755,1.487a1.07528,1.07528,0,0,1,.4582,1.1855h0A.61041.61041,0,0,1,325.89881,157.13247Z" transform="translate(-174.04435 -76.5446)"/><path class="cls-13" d="M339.14581,180.21757l-6.8789-3.9715a1.07528,1.07528,0,0,1-.4582-1.1855h0a.61046.61046,0,0,1,.927-.3858l6.8789,3.9715a1.07534,1.07534,0,0,1,.4582,1.1855h0A.61041.61041,0,0,1,339.14581,180.21757Z" transform="translate(-174.04435 -76.5446)"/><path class="cls-13" d="M323.01231,163.18437l-1.6532-.9544a1.07534,1.07534,0,0,1-.4582-1.1855h0a.61044.61044,0,0,1,.927-.3858l1.6531.9544a1.07534,1.07534,0,0,1,.4582,1.1855h0A.61031.61031,0,0,1,323.01231,163.18437Z" transform="translate(-174.04435 -76.5446)"/><path class="cls-13" d="M321.44791,169.99967l-2.053-1.1853a1.07539,1.07539,0,0,1-.4583-1.1855h0a.61046.61046,0,0,1,.927-.3858l2.053,1.1853a1.07519,1.07519,0,0,1,.4582,1.1855h0A.61035.61035,0,0,1,321.44791,169.99967Z" transform="translate(-174.04435 -76.5446)"/><path class="cls-13" d="M329.43461,174.61087l-5.4126-3.1251a1.07534,1.07534,0,0,1-.4583-1.1855h0a.61038.61038,0,0,1,.927-.3857l5.4127,3.125a1.07528,1.07528,0,0,1,.4582,1.1855h0A.61046.61046,0,0,1,329.43461,174.61087Z" transform="translate(-174.04435 -76.5446)"/><path class="cls-13" d="M322.30441,174.35347l-3.8917-2.2469a1.07534,1.07534,0,0,1-.4582-1.1855h0a.61046.61046,0,0,1,.927-.3858l3.8917,2.2469a1.07528,1.07528,0,0,1,.4582,1.1855h0A.61044.61044,0,0,1,322.30441,174.35347Z" transform="translate(-174.04435 -76.5446)"/><path class="cls-13" d="M345.04741,183.64147l-2.4994-1.443a1.07534,1.07534,0,0,1-.4582-1.1855h0a.61046.61046,0,0,1,.927-.3858l2.4993,1.443a1.07514,1.07514,0,0,1,.4582,1.1855h0A.61035.61035,0,0,1,345.04741,183.64147Z" transform="translate(-174.04435 -76.5446)"/><path class="cls-13" d="M335.47911,162.66367l-6.8789-3.9715a1.07534,1.07534,0,0,1-.4582-1.1855h0a.61046.61046,0,0,1,.927-.3858l6.8789,3.9715a1.07534,1.07534,0,0,1,.4582,1.1855h0A.61046.61046,0,0,1,335.47911,162.66367Z" transform="translate(-174.04435 -76.5446)"/></g><path class="cls-14" d="M336.29461,159.27527l-11.9891-6.9219a1.07519,1.07519,0,0,1-.4582-1.1855h0a.61035.61035,0,0,1,.9269-.3858l11.9891,6.9219a1.07528,1.07528,0,0,1,.4582,1.1855h0A.61035.61035,0,0,1,336.29461,159.27527Z" transform="translate(-174.04435 -76.5446)"/><path class="cls-14" d="M329.22011,162.90927l-6.8789-3.9715a1.07534,1.07534,0,0,1-.4582-1.1855h0a.61046.61046,0,0,1,.927-.3858l6.8789,3.9715a1.07534,1.07534,0,0,1,.4582,1.1855h0A.61046.61046,0,0,1,329.22011,162.90927Z" transform="translate(-174.04435 -76.5446)"/><path class="cls-14" d="M340.69651,165.676l-2.4993-1.443a1.07519,1.07519,0,0,1-.4582-1.1855h0a.61035.61035,0,0,1,.9269-.3858l2.4993,1.443a1.07514,1.07514,0,0,1,.4582,1.1855h0A.61035.61035,0,0,1,340.69651,165.676Z" transform="translate(-174.04435 -76.5446)"/><path class="cls-14" d="M366.11941,164.917l-14.8005-8.5451a1.07519,1.07519,0,0,1-.4582-1.1855h0a.61035.61035,0,0,1,.9269-.3858l14.8005,8.5451a1.07514,1.07514,0,0,1,.4582,1.1855h0A.61035.61035,0,0,1,366.11941,164.917Z" transform="translate(-174.04435 -76.5446)"/><path class="cls-15" d="M328.64591,170.29617l-8.2689-4.774a1.07519,1.07519,0,0,1-.4582-1.1855h0a.61035.61035,0,0,1,.9269-.3858l8.2689,4.7741a1.07514,1.07514,0,0,1,.4582,1.1855h0A.61027.61027,0,0,1,328.64591,170.29617Z" transform="translate(-174.04435 -76.5446)"/><path class="cls-15" d="M329.89281,144.00147l-6.0791-3.5098a1.07514,1.07514,0,0,1-.4582-1.1855h0a.61035.61035,0,0,1,.9269-.3858l6.0792,3.5098a1.07534,1.07534,0,0,1,.4582,1.1855h0A.61041.61041,0,0,1,329.89281,144.00147Z" transform="translate(-174.04435 -76.5446)"/><path class="cls-14" d="M321.03321,177.47867l-7.0408-4.065a1.07528,1.07528,0,0,1-.4582-1.1855h0a.61038.61038,0,0,1,.927-.3857l7.0407,4.0649a1.07534,1.07534,0,0,1,.4582,1.1855h0A.61031.61031,0,0,1,321.03321,177.47867Z" transform="translate(-174.04435 -76.5446)"/><path class="cls-5" d="M411.19461,155.35247l-4.1228-2.3803a1.07519,1.07519,0,0,1-.4582-1.1855h0a.61035.61035,0,0,1,.9269-.3858l4.1228,2.3803a1.07528,1.07528,0,0,1,.4582,1.1855h0A.61035.61035,0,0,1,411.19461,155.35247Z" transform="translate(-174.04435 -76.5446)"/><path class="cls-5" d="M419.05871,159.89287l-4.1228-2.3803a1.07534,1.07534,0,0,1-.4582-1.1855h0a.61046.61046,0,0,1,.927-.3858l4.1228,2.3803a1.07528,1.07528,0,0,1,.4582,1.1855h0A.61046.61046,0,0,1,419.05871,159.89287Z" transform="translate(-174.04435 -76.5446)"/><path class="cls-5" d="M426.92291,164.43317l-4.1228-2.3802a1.07534,1.07534,0,0,1-.4582-1.1855h0a.61031.61031,0,0,1,.9269-.3858l4.1228,2.3803a1.07514,1.07514,0,0,1,.4582,1.1855h0A.61027.61027,0,0,1,426.92291,164.43317Z" transform="translate(-174.04435 -76.5446)"/><path class="cls-15" d="M430.78831,166.66777l-.124-.0745a1.07514,1.07514,0,0,1-.4582-1.1855h0a.61027.61027,0,0,1,.9269-.3857l.1241.0744a1.07534,1.07534,0,0,1,.4582,1.1855h0A.61046.61046,0,0,1,430.78831,166.66777Z" transform="translate(-174.04435 -76.5446)"/><path class="cls-14" d="M370.01551,186.30027a.66611.66611,0,0,0-1.0383.3274l-.7854,2.5762a1.15507,1.15507,0,0,0,.5575,1.2492.666.666,0,0,0,1.0383-.3274l.7855-2.5763A1.155,1.155,0,0,0,370.01551,186.30027Z" transform="translate(-174.04435 -76.5446)"/><path class="cls-15" d="M373.337,188.59737a.66607.66607,0,0,0-1.0383.3274l-.6873,2.2542a1.1552,1.1552,0,0,0,.5576,1.2492.666.666,0,0,0,1.0383-.3275l.6872-2.2541A1.15476,1.15476,0,0,0,373.337,188.59737Z" transform="translate(-174.04435 -76.5446)"/><path class="cls-14" d="M377.52351,188.05717a.66607.66607,0,0,0-1.0383.3275l-1.4541,4.7694a1.15505,1.15505,0,0,0,.5575,1.2492.666.666,0,0,0,1.0383-.3275l1.4541-4.7694A1.15482,1.15482,0,0,0,377.52351,188.05717Z" transform="translate(-174.04435 -76.5446)"/><path class="cls-14" d="M381.781,187.28417a.66617.66617,0,0,0-1.0383.3275l-2.292,7.5175a1.15526,1.15526,0,0,0,.5576,1.2492.666.666,0,0,0,1.0383-.3275l2.2919-7.5175A1.155,1.155,0,0,0,381.781,187.28417Z" transform="translate(-174.04435 -76.5446)"/><path class="cls-15" d="M384.96021,190.04767a.666.666,0,0,0-1.0382.3275l-2.0516,6.7291a1.15505,1.15505,0,0,0,.5575,1.2492.666.666,0,0,0,1.0383-.3275l2.0516-6.7291A1.155,1.155,0,0,0,384.96021,190.04767Z" transform="translate(-174.04435 -76.5446)"/><path class="cls-14" d="M389.91131,186.99987a.66612.66612,0,0,0-1.0383.3275l-3.583,11.7519a1.1552,1.1552,0,0,0,.5576,1.2492.66585.66585,0,0,0,1.0382-.3275l3.583-11.7519A1.15488,1.15488,0,0,0,389.91131,186.99987Z" transform="translate(-174.04435 -76.5446)"/><path class="cls-16" d="M278.07691,292.76337a6.86007,6.86007,0,0,1-3.3799-.792l-36.5528-21.1035a2.63837,2.63837,0,0,1-1.5019-2.253,3.4548,3.4548,0,0,1,2.0156-2.7929l18.8164-10.8633a8.41618,8.41618,0,0,1,7.6836-.2969l36.5527,21.1035a2.6412,2.6412,0,0,1,1.503,2.252,3.45618,3.45618,0,0,1-2.0166,2.7939l-18.8155,10.8633A8.80212,8.80212,0,0,1,278.07691,292.76337Zm-16.2813-37.8262a7.83757,7.83757,0,0,0-3.7939.9356l-18.8164,10.8632c-.9454.5459-1.4883,1.2305-1.4883,1.8799a1.66974,1.66974,0,0,0,.9746,1.3379l36.5527,21.1035a7.50255,7.50255,0,0,0,6.6299-.2968l18.8154-10.8633c.9453-.5459,1.4883-1.2315,1.4883-1.8799a1.66993,1.66993,0,0,0-.9746-1.3379l-36.5527-21.1035A5.80642,5.80642,0,0,0,261.79561,254.93717Z" transform="translate(-174.04435 -76.5446)"/></svg>