<svg id="Ñëîé_1" data-name="Ñëîé 1" xmlns="http://www.w3.org/2000/svg" xmlns:xlink="http://www.w3.org/1999/xlink" viewBox="0 0 303.18687 273.96504"><defs><style>.cls-1{fill:#020230;opacity:0.6;}.cls-2{fill:url(#Áåçûìÿííûé_ãðàäèåíò_113);}.cls-3{fill:url(#Áåçûìÿííûé_ãðàäèåíò_109);}.cls-4{fill:url(#Áåçûìÿííûé_ãðàäèåíò_343);}.cls-5{fill:#fff;}.cls-10,.cls-6{opacity:0.4;}.cls-10,.cls-11,.cls-7{fill:#06033e;}.cls-8{fill:url(#Áåçûìÿííûé_ãðàäèåíò_343-2);}.cls-9{fill:url(#Áåçûìÿííûé_ãðàäèåíò_441);}.cls-11,.cls-13{opacity:0.5;}.cls-12{fill:url(#Áåçûìÿííûé_ãðàäèåíò_343-3);}.cls-14{fill:url(#Áåçûìÿííûé_ãðàäèåíò_343-4);}.cls-15{fill:#e8975b;}.cls-16{fill:#f8359e;}</style><radialGradient id="Áåçûìÿííûé_ãðàäèåíò_113" cx="362.21418" cy="109.12748" r="215.67168" gradientUnits="userSpaceOnUse"><stop offset="0" stop-color="#e39a65"/><stop offset="0.47421" stop-color="#a92ffb"/><stop offset="0.59467" stop-color="#891cfb"/><stop offset="0.74206" stop-color="#6507fa"/><stop offset="0.80159" stop-color="#0d0c6f"/></radialGradient><radialGradient id="Áåçûìÿííûé_ãðàäèåíò_109" cx="230.30468" cy="282.32751" r="235.8352" gradientUnits="userSpaceOnUse"><stop offset="0" stop-color="#e39a65"/><stop offset="0.47421" stop-color="#a92ffb"/><stop offset="0.5679" stop-color="#891cfb"/><stop offset="0.68254" stop-color="#6507fa"/><stop offset="0.73809" stop-color="#0d0c6f"/></radialGradient><radialGradient id="Áåçûìÿííûé_ãðàäèåíò_343" cx="251.99522" cy="234.99148" r="211.48369" gradientUnits="userSpaceOnUse"><stop offset="0" stop-color="#e39a65"/><stop offset="0.47421" stop-color="#a92ffb"/><stop offset="0.58753" stop-color="#891cfb"/><stop offset="0.72619" stop-color="#6507fa"/><stop offset="1" stop-color="#3919bb"/></radialGradient><radialGradient id="Áåçûìÿííûé_ãðàäèåíò_343-2" cx="304.68015" cy="154.1146" r="215.71503" xlink:href="#Áåçûìÿííûé_ãðàäèåíò_343"/><linearGradient id="Áåçûìÿííûé_ãðàäèåíò_441" x1="328.3897" y1="210.74021" x2="501.2453" y2="210.74021" gradientUnits="userSpaceOnUse"><stop offset="0" stop-color="#3919bb"/><stop offset="1" stop-color="#6507fa"/></linearGradient><radialGradient id="Áåçûìÿííûé_ãðàäèåíò_343-3" cx="225.93235" cy="108.04976" r="335.97038" xlink:href="#Áåçûìÿííûé_ãðàäèåíò_343"/><radialGradient id="Áåçûìÿííûé_ãðàäèåíò_343-4" cx="269.73078" cy="149.03421" r="196.51245" xlink:href="#Áåçûìÿííûé_ãðàäèåíò_343"/></defs><path class="cls-1" d="M529.6142,309.5313l-72.4639-33.1267-24.4182,34.1852L327.1957,249.6583c-2.0334-1.1738-5.5849-1.0266-7.9328.3288l-89.5315,51.6912c-2.3479,1.3555-2.6028,3.406-.5696,4.58l139.499,80.5396c2.0332,1.1741,5.585,1.0269,7.9326-.3287l88.4112-51.0443h0l64.3808-21.5639A2.33068,2.33068,0,0,0,529.6142,309.5313Z" transform="translate(-227.78911 -113.62553)"/><path class="cls-2" d="M503.7539,194.3871,364.8042,114.1644a3.60022,3.60022,0,0,0-2.8361-.4073v-.0001l-.0012.0004-.0126.0044-2.5727.8964.9056.2141a4.49178,4.49178,0,0,0-.8484,1.5891L328.016,218.4859a6.15379,6.15379,0,0,0,2.547,6.8652l138.9498,80.2227a4.073,4.073,0,0,0,1.0222.4175l-.3442.7498,2.4576-.8631-.0057-.0021a3.92753,3.92753,0,0,0,2.2355-2.5991L506.301,201.2523A6.15409,6.15409,0,0,0,503.7539,194.3871Z" transform="translate(-227.78911 -113.62553)"/><path class="cls-3" d="M464.539,309.3833l.0493.0588L327.3419,230.2028c-2.019-1.1656-5.5455-1.0194-7.8768.3265l-88.6743,51.1962-2.957-1.1289.8306,4.1483.004-.0023a2.48208,2.48208,0,0,0,1.3311,1.6609l138.5149,79.9716c2.0191,1.1657,5.5456,1.0195,7.8769-.3265l88.9-51.3264a3.55579,3.55579,0,0,0,1.884-2.1956l.005.0061.8484-4.0375Z" transform="translate(-227.78911 -113.62553)"/><path class="cls-4" d="M368.6607,362.7256,229.1618,282.1858c-2.0333-1.1739-1.7783-3.2244.5695-4.5799l89.5316-51.6911c2.3478-1.3556,5.8995-1.5028,7.9328-.3288l139.4989,80.5397c2.0333,1.1739,1.7783,3.2245-.5695,4.58l-89.5316,51.6911C374.2456,363.7523,370.694,363.8995,368.6607,362.7256Z" transform="translate(-227.78911 -113.62553)"/><path class="cls-5" d="M466.1249,309.6194l-89.5314,51.6909c-2.3478,1.3556-5.8995,1.503-7.9327.3291L229.1617,281.0995a2.60575,2.60575,0,0,1-1.2685-1.4466,2.17412,2.17412,0,0,0,1.2685,2.5329l139.4991,80.5399c2.0332,1.1739,5.5849,1.0265,7.9327-.3288l89.5314-51.6912c1.5481-.8937,2.1654-2.0859,1.8382-3.1333A3.69414,3.69414,0,0,1,466.1249,309.6194Z" transform="translate(-227.78911 -113.62553)"/><g class="cls-6"><path class="cls-7" d="M295.7009,269.1156l-4.7097-2.7191c-.3781-.2184-.3307-.5997.106-.8518l5.559-3.2095a1.63981,1.63981,0,0,1,1.4753-.0612l4.7097,2.7192c.3781.2183.3307.5996-.1059.8517l-5.5591,3.2095A1.6398,1.6398,0,0,1,295.7009,269.1156Z" transform="translate(-227.78911 -113.62553)"/><path class="cls-7" d="M302.9741,273.3147l-4.7097-2.7191c-.3782-.2183-.3307-.5997.1059-.8517l5.5591-3.2096a1.63978,1.63978,0,0,1,1.4753-.0611l4.7096,2.7191c.3782.2183.3307.5997-.1059.8518l-5.559,3.2095A1.63948,1.63948,0,0,1,302.9741,273.3147Z" transform="translate(-227.78911 -113.62553)"/><path class="cls-7" d="M310.2472,277.5139l-4.7097-2.7191c-.3781-.2183-.3307-.5997.106-.8518l5.559-3.2095a1.63981,1.63981,0,0,1,1.4753-.0612l4.7097,2.7192c.3781.2183.3307.5996-.1059.8517l-5.5591,3.2095A1.6398,1.6398,0,0,1,310.2472,277.5139Z" transform="translate(-227.78911 -113.62553)"/><path class="cls-7" d="M320.3064,274.0461l-4.7097-2.7191c-.3782-.2184-.3307-.5997.1059-.8518l4.6665-2.6942a1.63981,1.63981,0,0,1,1.4753-.0612l4.7097,2.7192c.3781.2183.3307.5996-.1059.8517l-4.6665,2.6942A1.63981,1.63981,0,0,1,320.3064,274.0461Z" transform="translate(-227.78911 -113.62553)"/><path class="cls-7" d="M327.5795,278.2452l-4.7097-2.7191c-.3781-.2183-.3307-.5997.106-.8518l4.6665-2.6942a1.63978,1.63978,0,0,1,1.4753-.0611l4.7096,2.7191c.3782.2183.3308.5997-.1059.8518l-4.6665,2.6942A1.63946,1.63946,0,0,1,327.5795,278.2452Z" transform="translate(-227.78911 -113.62553)"/><path class="cls-7" d="M334.8527,282.4444l-4.7097-2.7191c-.3782-.2184-.3307-.5997.1059-.8518l4.6665-2.6942a1.63981,1.63981,0,0,1,1.4753-.0612l4.7097,2.7192c.3781.2183.3307.5996-.1059.8517l-4.6665,2.6942A1.63981,1.63981,0,0,1,334.8527,282.4444Z" transform="translate(-227.78911 -113.62553)"/><path class="cls-7" d="M342.1258,286.6435l-4.7097-2.7191c-.3781-.2183-.3307-.5997.106-.8517l4.6665-2.6943a1.63978,1.63978,0,0,1,1.4753-.0611l4.7096,2.7191c.3782.2183.3308.5997-.1059.8518l-4.6665,2.6942A1.63946,1.63946,0,0,1,342.1258,286.6435Z" transform="translate(-227.78911 -113.62553)"/><path class="cls-7" d="M349.399,290.8427l-4.7097-2.7191c-.3781-.2183-.3307-.5997.1059-.8518l4.6665-2.6942a1.63981,1.63981,0,0,1,1.4753-.0612l4.7097,2.7192c.3781.2183.3307.5996-.1059.8517l-4.6665,2.6942A1.63981,1.63981,0,0,1,349.399,290.8427Z" transform="translate(-227.78911 -113.62553)"/><path class="cls-7" d="M356.6721,295.0419l-4.7097-2.7192c-.3781-.2183-.3307-.5996.106-.8517l4.6665-2.6942a1.6398,1.6398,0,0,1,1.4753-.0612l4.7096,2.7191c.3782.2184.3308.5997-.1059.8518l-4.6665,2.6942A1.6398,1.6398,0,0,1,356.6721,295.0419Z" transform="translate(-227.78911 -113.62553)"/><path class="cls-7" d="M363.9453,299.241l-4.7097-2.7191c-.3781-.2183-.3307-.5997.1059-.8518l4.6665-2.6942a1.63948,1.63948,0,0,1,1.4753-.0611l4.7097,2.7191c.3781.2183.3307.5997-.1059.8518l-4.6665,2.6942A1.63979,1.63979,0,0,1,363.9453,299.241Z" transform="translate(-227.78911 -113.62553)"/><path class="cls-7" d="M371.2184,303.4402l-4.7097-2.7192c-.3781-.2183-.3307-.5996.106-.8517l4.6665-2.6942a1.6398,1.6398,0,0,1,1.4753-.0612l4.7096,2.7191c.3782.2184.3308.5997-.1059.8518l-4.6665,2.6942A1.6398,1.6398,0,0,1,371.2184,303.4402Z" transform="translate(-227.78911 -113.62553)"/><path class="cls-7" d="M378.4916,307.6393l-4.7097-2.7191c-.3781-.2183-.3307-.5997.1059-.8518l4.6665-2.6942a1.63948,1.63948,0,0,1,1.4753-.0611l4.7097,2.7191c.3781.2183.3307.5997-.1059.8518l-4.6665,2.6942A1.63979,1.63979,0,0,1,378.4916,307.6393Z" transform="translate(-227.78911 -113.62553)"/><path class="cls-7" d="M385.7647,311.8385l-4.7097-2.7191c-.3781-.2184-.3307-.5997.106-.8518l4.6665-2.6942a1.6398,1.6398,0,0,1,1.4753-.0612l4.7097,2.7192c.3781.2183.3307.5996-.106.8517l-4.6665,2.6942A1.6398,1.6398,0,0,1,385.7647,311.8385Z" transform="translate(-227.78911 -113.62553)"/><path class="cls-7" d="M331.0229,272.058l-4.7097-2.7191c-.3781-.2183-.3307-.5997.1059-.8518l4.6666-2.6942a1.63978,1.63978,0,0,1,1.4753-.0611l4.7096,2.7191c.3782.2183.3307.5997-.1059.8518l-4.6665,2.6942A1.63947,1.63947,0,0,1,331.0229,272.058Z" transform="translate(-227.78911 -113.62553)"/><path class="cls-7" d="M323.6412,267.7962l-4.7097-2.7191c-.3781-.2183-.3307-.5997.1059-.8518l4.6665-2.6942a1.63948,1.63948,0,0,1,1.4753-.0611l4.7097,2.7191c.3782.2183.3307.5997-.1059.8518l-4.6665,2.6942A1.63979,1.63979,0,0,1,323.6412,267.7962Z" transform="translate(-227.78911 -113.62553)"/><path class="cls-7" d="M316.2474,263.5274l-10.1434-5.8563c-.3781-.2183-.3307-.5997.1059-.8518l4.6665-2.6942a1.63979,1.63979,0,0,1,1.4753-.0611l10.1435,5.8563c.3781.2183.3307.5997-.106.8518l-4.6665,2.6942A1.63978,1.63978,0,0,1,316.2474,263.5274Z" transform="translate(-227.78911 -113.62553)"/><path class="cls-7" d="M321.4156,258.336l-8.2316-4.7525c-.3782-.2183-.3308-.5997.1059-.8518l4.6665-2.6942a1.63946,1.63946,0,0,1,1.4753-.0611l8.2316,4.7525c.3782.2183.3308.5997-.1059.8518l-4.6665,2.6942A1.63946,1.63946,0,0,1,321.4156,258.336Z" transform="translate(-227.78911 -113.62553)"/><path class="cls-7" d="M338.296,276.2572l-4.7096-2.7191c-.3782-.2184-.3307-.5997.1059-.8518l4.6665-2.6942a1.63981,1.63981,0,0,1,1.4753-.0612l4.7097,2.7192c.3781.2183.3307.5996-.1059.8517l-4.6666,2.6942A1.6398,1.6398,0,0,1,338.296,276.2572Z" transform="translate(-227.78911 -113.62553)"/><path class="cls-7" d="M345.5692,280.4564l-4.7097-2.7192c-.3781-.2183-.3307-.5996.1059-.8517l4.6666-2.6943a1.64009,1.64009,0,0,1,1.4753-.0611l4.7096,2.7191c.3782.2183.3307.5997-.1059.8518l-4.6665,2.6942A1.63981,1.63981,0,0,1,345.5692,280.4564Z" transform="translate(-227.78911 -113.62553)"/><path class="cls-7" d="M352.8423,284.6555l-4.7096-2.7191c-.3782-.2183-.3307-.5997.1059-.8518l4.6665-2.6942a1.63947,1.63947,0,0,1,1.4753-.0611l4.7097,2.7191c.3781.2183.3307.5997-.1059.8517l-4.6665,2.6943A1.64,1.64,0,0,1,352.8423,284.6555Z" transform="translate(-227.78911 -113.62553)"/><path class="cls-7" d="M360.1155,288.8547l-4.7097-2.7192c-.3781-.2183-.3307-.5996.1059-.8517l4.6666-2.6942a1.6398,1.6398,0,0,1,1.4753-.0612l4.7096,2.7191c.3782.2184.3308.5997-.1059.8518l-4.6665,2.6942A1.63981,1.63981,0,0,1,360.1155,288.8547Z" transform="translate(-227.78911 -113.62553)"/><path class="cls-7" d="M367.3887,293.0538l-4.7097-2.7191c-.3782-.2183-.3307-.5997.1059-.8518l4.6665-2.6942a1.63948,1.63948,0,0,1,1.4753-.0611l4.7097,2.7191c.3781.2183.3307.5997-.1059.8518l-4.6665,2.6942A1.63979,1.63979,0,0,1,367.3887,293.0538Z" transform="translate(-227.78911 -113.62553)"/><path class="cls-7" d="M374.6618,297.253l-4.7097-2.7192c-.3781-.2183-.3307-.5996.106-.8517l4.6665-2.6942a1.6398,1.6398,0,0,1,1.4753-.0612l4.7096,2.7191c.3782.2184.3308.5997-.1059.8518l-4.6665,2.6942A1.63981,1.63981,0,0,1,374.6618,297.253Z" transform="translate(-227.78911 -113.62553)"/><path class="cls-7" d="M381.935,301.4521l-4.7097-2.7191c-.3782-.2183-.3307-.5997.1059-.8518l4.6665-2.6942a1.63979,1.63979,0,0,1,1.4753-.0611l4.7097,2.7191c.3781.2183.3307.5997-.1059.8518l-4.6665,2.6942A1.63948,1.63948,0,0,1,381.935,301.4521Z" transform="translate(-227.78911 -113.62553)"/><path class="cls-7" d="M389.2081,305.6513l-4.7097-2.7191c-.3781-.2184-.3307-.5997.106-.8518l4.6665-2.6942a1.6398,1.6398,0,0,1,1.4753-.0612l4.7096,2.7192c.3782.2183.3308.5996-.1059.8517l-4.6665,2.6942A1.63981,1.63981,0,0,1,389.2081,305.6513Z" transform="translate(-227.78911 -113.62553)"/><path class="cls-7" d="M396.4813,309.8504l-4.7097-2.7191c-.3782-.2183-.3307-.5997.1059-.8518l4.6665-2.6942a1.63979,1.63979,0,0,1,1.4753-.0611l4.7097,2.7191c.3781.2183.3307.5997-.1059.8518l-4.6665,2.6942A1.63948,1.63948,0,0,1,396.4813,309.8504Z" transform="translate(-227.78911 -113.62553)"/><path class="cls-7" d="M409.4113,317.3156l-10.2761-5.9329c-.3781-.2183-.3307-.5997.1059-.8518l4.6665-2.6942a1.63948,1.63948,0,0,1,1.4753-.0611l10.2761,5.9329c.3782.2183.3308.5997-.1059.8517l-4.6665,2.6943A1.63978,1.63978,0,0,1,409.4113,317.3156Z" transform="translate(-227.78911 -113.62553)"/><path class="cls-7" d="M423.5712,309.1404l-8.6734-5.0076c-.3781-.2183-.3307-.5997.1059-.8518l4.6665-2.6942a1.63981,1.63981,0,0,1,1.4753-.0612l8.6734,5.0076c.3782.2184.3308.5997-.1059.8518l-4.6665,2.6942A1.6398,1.6398,0,0,1,423.5712,309.1404Z" transform="translate(-227.78911 -113.62553)"/><path class="cls-7" d="M351.0329,275.4356l-4.7097-2.7191c-.3781-.2184-.3307-.5997.1059-.8518l4.6666-2.6942a1.6398,1.6398,0,0,1,1.4753-.0612l4.7096,2.7192c.3782.2183.3308.5996-.1059.8517l-4.6665,2.6942A1.63981,1.63981,0,0,1,351.0329,275.4356Z" transform="translate(-227.78911 -113.62553)"/><path class="cls-7" d="M343.5788,271.132l-4.7096-2.7191c-.3782-.2184-.3308-.5997.1059-.8518l4.6665-2.6942a1.6398,1.6398,0,0,1,1.4753-.0612l4.7097,2.7192c.3781.2183.3307.5996-.106.8517l-4.6665,2.6942A1.6398,1.6398,0,0,1,343.5788,271.132Z" transform="translate(-227.78911 -113.62553)"/><path class="cls-7" d="M336.1247,266.8284l-4.7096-2.7192c-.3782-.2183-.3307-.5996.1059-.8517l4.6665-2.6942a1.63981,1.63981,0,0,1,1.4753-.0612l4.7097,2.7191c.3781.2184.3307.5997-.1059.8518l-4.6665,2.6942A1.64,1.64,0,0,1,336.1247,266.8284Z" transform="translate(-227.78911 -113.62553)"/><path class="cls-7" d="M328.6707,262.5248l-4.7097-2.7192c-.3781-.2183-.3307-.5996.1059-.8517l4.6665-2.6942a1.63981,1.63981,0,0,1,1.4753-.0612l4.7097,2.7191c.3781.2183.3307.5997-.1059.8518l-4.6665,2.6942A1.63981,1.63981,0,0,1,328.6707,262.5248Z" transform="translate(-227.78911 -113.62553)"/><path class="cls-7" d="M358.3061,279.6347l-4.7097-2.7191c-.3782-.2183-.3307-.5997.1059-.8517l4.6665-2.6943a1.63979,1.63979,0,0,1,1.4753-.0611l4.7097,2.7191c.3781.2183.3307.5997-.1059.8518l-4.6665,2.6942A1.63948,1.63948,0,0,1,358.3061,279.6347Z" transform="translate(-227.78911 -113.62553)"/><path class="cls-7" d="M365.5792,283.8339l-4.7097-2.7191c-.3781-.2183-.3307-.5997.106-.8518l4.6665-2.6942a1.6398,1.6398,0,0,1,1.4753-.0612l4.7096,2.7192c.3782.2183.3308.5996-.1059.8517l-4.6665,2.6943A1.6401,1.6401,0,0,1,365.5792,283.8339Z" transform="translate(-227.78911 -113.62553)"/><path class="cls-7" d="M372.8524,288.0331l-4.7097-2.7192c-.3782-.2183-.3307-.5996.1059-.8517l4.6665-2.6942a1.63981,1.63981,0,0,1,1.4753-.0612l4.7097,2.7191c.3781.2184.3307.5997-.1059.8518l-4.6665,2.6942A1.63981,1.63981,0,0,1,372.8524,288.0331Z" transform="translate(-227.78911 -113.62553)"/><path class="cls-7" d="M380.1255,292.2322l-4.7097-2.7191c-.3781-.2183-.3307-.5997.106-.8518l4.6665-2.6942a1.63946,1.63946,0,0,1,1.4753-.0611l4.7096,2.7191c.3782.2183.3308.5997-.1059.8518l-4.6665,2.6942A1.63978,1.63978,0,0,1,380.1255,292.2322Z" transform="translate(-227.78911 -113.62553)"/><path class="cls-7" d="M387.3987,296.4314l-4.7097-2.7192c-.3782-.2183-.3307-.5996.1059-.8517l4.6665-2.6942a1.63981,1.63981,0,0,1,1.4753-.0612l4.7097,2.7191c.3781.2184.3307.5997-.1059.8518l-4.6665,2.6942A1.63981,1.63981,0,0,1,387.3987,296.4314Z" transform="translate(-227.78911 -113.62553)"/><path class="cls-7" d="M394.6718,300.6305l-4.7097-2.7191c-.3781-.2183-.3307-.5997.106-.8518l4.6665-2.6942a1.63946,1.63946,0,0,1,1.4753-.0611l4.7096,2.7191c.3782.2183.3308.5997-.1059.8518l-4.6665,2.6942A1.63978,1.63978,0,0,1,394.6718,300.6305Z" transform="translate(-227.78911 -113.62553)"/><path class="cls-7" d="M401.945,304.8297l-4.7097-2.7191c-.3782-.2184-.3307-.5997.1059-.8518l4.6665-2.6942a1.63981,1.63981,0,0,1,1.4753-.0612l4.7097,2.7192c.3781.2183.3307.5996-.1059.8517l-4.6665,2.6942A1.63981,1.63981,0,0,1,401.945,304.8297Z" transform="translate(-227.78911 -113.62553)"/><path class="cls-7" d="M409.2181,309.0288l-4.7097-2.7191c-.3781-.2183-.3307-.5997.106-.8518l4.6665-2.6942a1.63978,1.63978,0,0,1,1.4753-.0611l4.7096,2.7191c.3782.2183.3308.5997-.1059.8518l-4.6665,2.6942A1.63946,1.63946,0,0,1,409.2181,309.0288Z" transform="translate(-227.78911 -113.62553)"/><path class="cls-7" d="M416.4913,313.228l-4.7097-2.7191c-.3782-.2184-.3307-.5997.1059-.8518l4.6665-2.6942a1.63981,1.63981,0,0,1,1.4753-.0612l4.7097,2.7192c.3781.2183.3307.5996-.1059.8517l-4.6665,2.6942A1.63981,1.63981,0,0,1,416.4913,313.228Z" transform="translate(-227.78911 -113.62553)"/><path class="cls-7" d="M347.2031,265.0492l-4.7096-2.7191c-.3782-.2183-.3308-.5997.1059-.8518l4.6665-2.6942a1.63978,1.63978,0,0,1,1.4753-.0611l4.7097,2.7191c.3781.2183.3307.5997-.106.8518l-4.6665,2.6942A1.63946,1.63946,0,0,1,347.2031,265.0492Z" transform="translate(-227.78911 -113.62553)"/><path class="cls-7" d="M339.9662,260.871l-4.7097-2.7191c-.3782-.2184-.3307-.5997.1059-.8518l4.6665-2.6942a1.63981,1.63981,0,0,1,1.4753-.0612l4.7097,2.7192c.3781.2183.3307.5996-.1059.8517l-4.6665,2.6942A1.63981,1.63981,0,0,1,339.9662,260.871Z" transform="translate(-227.78911 -113.62553)"/><path class="cls-7" d="M332.7292,256.6927l-4.7097-2.7191c-.3781-.2183-.3307-.5997.1059-.8518l4.6666-2.6942a1.63946,1.63946,0,0,1,1.4753-.0611l4.7096,2.7191c.3782.2183.3307.5997-.1059.8518l-4.6665,2.6942A1.63978,1.63978,0,0,1,332.7292,256.6927Z" transform="translate(-227.78911 -113.62553)"/><path class="cls-7" d="M325.4922,252.5145l-4.7096-2.7192c-.3782-.2183-.3308-.5996.1059-.8517l4.6665-2.6943a1.64009,1.64009,0,0,1,1.4753-.0611l4.7097,2.7191c.3781.2183.3307.5997-.106.8518l-4.6665,2.6942A1.6398,1.6398,0,0,1,325.4922,252.5145Z" transform="translate(-227.78911 -113.62553)"/><path class="cls-7" d="M332.934,248.2179l-4.7096-2.7191c-.3782-.2183-.3308-.5997.1059-.8518l1.5426-.8906a1.63981,1.63981,0,0,1,1.4753-.0612l4.7097,2.7192c.3781.2183.3307.5996-.1059.8517l-1.5427.8907A1.63946,1.63946,0,0,1,332.934,248.2179Z" transform="translate(-227.78911 -113.62553)"/><path class="cls-7" d="M342.3783,253.6706l-4.7097-2.7192c-.3781-.2183-.3307-.5996.1059-.8517l1.5427-.8907a1.63946,1.63946,0,0,1,1.4753-.0611l4.7096,2.7191c.3782.2183.3308.5997-.1059.8518l-1.5426.8906A1.63981,1.63981,0,0,1,342.3783,253.6706Z" transform="translate(-227.78911 -113.62553)"/><path class="cls-7" d="M349.5851,257.8314l-4.7097-2.7191c-.3781-.2183-.3307-.5997.1059-.8518l1.5427-.8906a1.6398,1.6398,0,0,1,1.4753-.0612l4.7096,2.7192c.3782.2183.3308.5996-.1059.8517l-1.5426.8907A1.63979,1.63979,0,0,1,349.5851,257.8314Z" transform="translate(-227.78911 -113.62553)"/><path class="cls-7" d="M356.7919,261.9923l-4.7097-2.7192c-.3781-.2183-.3307-.5996.1059-.8517l1.5427-.8907a1.63978,1.63978,0,0,1,1.4753-.0611l4.7097,2.7191c.3781.2183.3307.5997-.106.8518l-1.5426.8906A1.63981,1.63981,0,0,1,356.7919,261.9923Z" transform="translate(-227.78911 -113.62553)"/><path class="cls-7" d="M363.9987,266.1531l-4.7097-2.7191c-.3781-.2183-.3307-.5997.106-.8518l1.5426-.8906a1.63981,1.63981,0,0,1,1.4753-.0612l4.7097,2.7192c.3781.2183.3307.5996-.106.8517l-1.5426.8907A1.63947,1.63947,0,0,1,363.9987,266.1531Z" transform="translate(-227.78911 -113.62553)"/><path class="cls-7" d="M404.2332,289.3825l-4.7097-2.7191c-.3781-.2183-.3307-.5997.106-.8518l1.5426-.8906a1.63981,1.63981,0,0,1,1.4753-.0612l4.7097,2.7192c.3781.2183.3307.5996-.1059.8517l-1.5427.8907A1.63946,1.63946,0,0,1,404.2332,289.3825Z" transform="translate(-227.78911 -113.62553)"/><path class="cls-7" d="M411.44,293.5434l-4.7096-2.7191c-.3782-.2184-.3308-.5997.1059-.8518l1.5426-.8906a1.63981,1.63981,0,0,1,1.4753-.0612l4.7097,2.7191c.3781.2183.3307.5997-.1059.8518l-1.5427.8906A1.6398,1.6398,0,0,1,411.44,293.5434Z" transform="translate(-227.78911 -113.62553)"/><path class="cls-7" d="M418.6468,297.7042l-4.7096-2.7191c-.3782-.2183-.3307-.5997.1059-.8517l1.5426-.8907a1.63948,1.63948,0,0,1,1.4753-.0611l4.7097,2.7191c.3782.2183.3307.5997-.1059.8517l-1.5427.8907A1.63946,1.63946,0,0,1,418.6468,297.7042Z" transform="translate(-227.78911 -113.62553)"/><path class="cls-7" d="M425.8537,301.8651l-4.7097-2.7191c-.3782-.2183-.3307-.5997.1059-.8518l1.5426-.8906a1.64,1.64,0,0,1,1.4754-.0612l4.7096,2.7191c.3782.2184.3307.5997-.1059.8518l-1.5426.8906A1.63981,1.63981,0,0,1,425.8537,301.8651Z" transform="translate(-227.78911 -113.62553)"/><path class="cls-7" d="M354.4763,269.2484l-4.7097-2.7191c-.3781-.2184-.3307-.5997.1059-.8518l4.6665-2.6942a1.63981,1.63981,0,0,1,1.4753-.0612l4.7097,2.7192c.3782.2183.3307.5996-.1059.8517l-4.6665,2.6942A1.63981,1.63981,0,0,1,354.4763,269.2484Z" transform="translate(-227.78911 -113.62553)"/><path class="cls-7" d="M361.7494,273.4476l-4.7096-2.7192c-.3782-.2183-.3308-.5996.1059-.8517l4.6665-2.6942a1.6398,1.6398,0,0,1,1.4753-.0612l4.7097,2.7191c.3781.2183.3307.5997-.106.8518l-4.6665,2.6942A1.6398,1.6398,0,0,1,361.7494,273.4476Z" transform="translate(-227.78911 -113.62553)"/><path class="cls-7" d="M369.0226,277.6467l-4.7097-2.7191c-.3781-.2183-.3307-.5997.1059-.8518l4.6665-2.6942a1.63948,1.63948,0,0,1,1.4753-.0611l4.7097,2.7191c.3782.2183.3307.5997-.1059.8517l-4.6665,2.6943A1.63979,1.63979,0,0,1,369.0226,277.6467Z" transform="translate(-227.78911 -113.62553)"/><path class="cls-7" d="M376.2957,281.8459l-4.7096-2.7192c-.3782-.2183-.3308-.5996.1059-.8517l4.6665-2.6942a1.6398,1.6398,0,0,1,1.4753-.0612l4.7097,2.7191c.3781.2184.3307.5997-.106.8518l-4.6665,2.6942A1.6398,1.6398,0,0,1,376.2957,281.8459Z" transform="translate(-227.78911 -113.62553)"/><path class="cls-7" d="M383.5689,286.045l-4.7097-2.7191c-.3781-.2183-.3307-.5997.1059-.8518l4.6665-2.6942a1.63948,1.63948,0,0,1,1.4753-.0611l4.7097,2.7191c.3782.2183.3307.5997-.1059.8518l-4.6665,2.6942A1.63979,1.63979,0,0,1,383.5689,286.045Z" transform="translate(-227.78911 -113.62553)"/><path class="cls-7" d="M390.842,290.2442l-4.7096-2.7192c-.3782-.2183-.3308-.5996.1059-.8517l4.6665-2.6942a1.63981,1.63981,0,0,1,1.4753-.0612l4.7097,2.7191c.3781.2184.3307.5997-.106.8518l-4.6665,2.6942A1.6398,1.6398,0,0,1,390.842,290.2442Z" transform="translate(-227.78911 -113.62553)"/><path class="cls-7" d="M398.1152,294.4433l-4.7097-2.7191c-.3781-.2183-.3307-.5997.1059-.8518l4.6665-2.6942a1.63979,1.63979,0,0,1,1.4753-.0611l4.7097,2.7191c.3782.2183.3307.5997-.1059.8518l-4.6665,2.6942A1.63948,1.63948,0,0,1,398.1152,294.4433Z" transform="translate(-227.78911 -113.62553)"/><path class="cls-7" d="M405.3883,298.6425l-4.7096-2.7191c-.3782-.2184-.3308-.5997.1059-.8518l4.6665-2.6942a1.63981,1.63981,0,0,1,1.4753-.0612l4.7097,2.7192c.3781.2183.3307.5996-.106.8517l-4.6665,2.6942A1.6398,1.6398,0,0,1,405.3883,298.6425Z" transform="translate(-227.78911 -113.62553)"/><path class="cls-7" d="M412.6615,302.8416l-4.7097-2.7191c-.3781-.2183-.3307-.5997.1059-.8518l4.6665-2.6942a1.63979,1.63979,0,0,1,1.4753-.0611l4.7097,2.7191c.3782.2183.3307.5997-.1059.8518l-4.6665,2.6942A1.63948,1.63948,0,0,1,412.6615,302.8416Z" transform="translate(-227.78911 -113.62553)"/><path class="cls-7" d="M312.8945,269.7668l-13.8705-8.0081c-.3781-.2183-.3307-.5996.106-.8517l4.6665-2.6942a1.6398,1.6398,0,0,1,1.4753-.0612l13.8704,8.0081c.3782.2183.3308.5997-.1059.8518l-4.6665,2.6942A1.63947,1.63947,0,0,1,312.8945,269.7668Z" transform="translate(-227.78911 -113.62553)"/><path class="cls-7" d="M402.2469,321.3545l-13.8705-8.0081c-.3781-.2184-.3307-.5997.106-.8518l4.6665-2.6942a1.6398,1.6398,0,0,1,1.4753-.0612l13.8704,8.0081c.3782.2184.3308.5997-.1059.8518l-4.6665,2.6942A1.6398,1.6398,0,0,1,402.2469,321.3545Z" transform="translate(-227.78911 -113.62553)"/><path class="cls-7" d="M373.1606,313.8369l-4.7097-2.7191c-.3781-.2183-.3307-.5997.1059-.8517l5.5591-3.2096a1.63978,1.63978,0,0,1,1.4753-.0611l4.7096,2.7191c.3782.2183.3308.5997-.1059.8518l-5.559,3.2095A1.63948,1.63948,0,0,1,373.1606,313.8369Z" transform="translate(-227.78911 -113.62553)"/><path class="cls-7" d="M320.3428,283.3426l-7.5321-4.3487c-.3781-.2183-.3307-.5996.1059-.8517l5.5591-3.2095a1.6398,1.6398,0,0,1,1.4753-.0612l7.532,4.3486c.3782.2184.3308.5997-.1059.8518l-5.559,3.2095A1.63981,1.63981,0,0,1,320.3428,283.3426Z" transform="translate(-227.78911 -113.62553)"/><path class="cls-7" d="M366.1528,309.791l-7.5321-4.3487c-.3782-.2183-.3307-.5996.1059-.8517l5.5591-3.2095a1.6398,1.6398,0,0,1,1.4753-.0612l7.532,4.3487c.3782.2183.3308.5996-.1059.8517l-5.559,3.2095A1.63981,1.63981,0,0,1,366.1528,309.791Z" transform="translate(-227.78911 -113.62553)"/><path class="cls-7" d="M330.8364,289.4011l-7.5321-4.3487c-.3781-.2183-.3307-.5997.1059-.8518l5.5591-3.2095a1.63978,1.63978,0,0,1,1.4753-.0611l7.532,4.3486c.3782.2184.3308.5997-.1059.8518l-5.559,3.2095A1.63981,1.63981,0,0,1,330.8364,289.4011Z" transform="translate(-227.78911 -113.62553)"/><path class="cls-7" d="M330.4956,280.9595l32.7473,18.9066a.44844.44844,0,0,1,0,.8496l-5.6688,3.2729a1.62628,1.62628,0,0,1-1.4715-.0001l-32.7472-18.9066Z" transform="translate(-227.78911 -113.62553)"/><path class="cls-7" d="M393.4878,321.4505l5.2461,3.0288c.31.179.2711.4915-.0868.6982l-2.274,1.3129a1.34408,1.34408,0,0,1-1.2093.0501l-5.2461-3.0288c-.3099-.179-.2711-.4915.0868-.6982l2.2741-1.3129A1.34388,1.34388,0,0,1,393.4878,321.4505Z" transform="translate(-227.78911 -113.62553)"/><path class="cls-7" d="M386.1544,317.2165l5.2461,3.0288c.3099.179.2711.4916-.0868.6982l-2.2741,1.3129a1.34377,1.34377,0,0,1-1.2093.0501l-5.246-3.0288c-.31-.1789-.2711-.4915.0868-.6982l2.274-1.3129A1.34408,1.34408,0,0,1,386.1544,317.2165Z" transform="translate(-227.78911 -113.62553)"/><path class="cls-7" d="M378.8812,313.0173l5.2461,3.0289c.31.1789.2711.4915-.0868.6981l-2.274,1.313a1.3444,1.3444,0,0,1-1.2093.0501l-5.2461-3.0288c-.3099-.179-.2711-.4916.0868-.6982l2.2741-1.3129A1.3439,1.3439,0,0,1,378.8812,313.0173Z" transform="translate(-227.78911 -113.62553)"/><path class="cls-7" d="M390.1708,314.8976l5.2461,3.0289c.3099.1789.2711.4915-.0868.6981l-2.2741,1.3129a1.34411,1.34411,0,0,1-1.2093.0502l-5.246-3.0289c-.31-.1789-.2711-.4915.0868-.6981l2.274-1.3129A1.34411,1.34411,0,0,1,390.1708,314.8976Z" transform="translate(-227.78911 -113.62553)"/></g><g class="cls-6"><path class="cls-7" d="M295.7009,269.1156l-4.7097-2.7191c-.3781-.2184-.3307-.5997.106-.8518l5.559-3.2095a1.63981,1.63981,0,0,1,1.4753-.0612l4.7097,2.7192c.3781.2183.3307.5996-.1059.8517l-5.5591,3.2095A1.6398,1.6398,0,0,1,295.7009,269.1156Z" transform="translate(-227.78911 -113.62553)"/><path class="cls-7" d="M302.9741,273.3147l-4.7097-2.7191c-.3782-.2183-.3307-.5997.1059-.8517l5.5591-3.2096a1.63978,1.63978,0,0,1,1.4753-.0611l4.7096,2.7191c.3782.2183.3307.5997-.1059.8518l-5.559,3.2095A1.63948,1.63948,0,0,1,302.9741,273.3147Z" transform="translate(-227.78911 -113.62553)"/><path class="cls-7" d="M310.2472,277.5139l-4.7097-2.7191c-.3781-.2183-.3307-.5997.106-.8518l5.559-3.2095a1.63981,1.63981,0,0,1,1.4753-.0612l4.7097,2.7192c.3781.2183.3307.5996-.1059.8517l-5.5591,3.2095A1.6398,1.6398,0,0,1,310.2472,277.5139Z" transform="translate(-227.78911 -113.62553)"/><path class="cls-7" d="M320.3064,274.0461l-4.7097-2.7191c-.3782-.2184-.3307-.5997.1059-.8518l4.6665-2.6942a1.63981,1.63981,0,0,1,1.4753-.0612l4.7097,2.7192c.3781.2183.3307.5996-.1059.8517l-4.6665,2.6942A1.63981,1.63981,0,0,1,320.3064,274.0461Z" transform="translate(-227.78911 -113.62553)"/><path class="cls-7" d="M327.5795,278.2452l-4.7097-2.7191c-.3781-.2183-.3307-.5997.106-.8518l4.6665-2.6942a1.63978,1.63978,0,0,1,1.4753-.0611l4.7096,2.7191c.3782.2183.3308.5997-.1059.8518l-4.6665,2.6942A1.63946,1.63946,0,0,1,327.5795,278.2452Z" transform="translate(-227.78911 -113.62553)"/><path class="cls-7" d="M334.8527,282.4444l-4.7097-2.7191c-.3782-.2184-.3307-.5997.1059-.8518l4.6665-2.6942a1.63981,1.63981,0,0,1,1.4753-.0612l4.7097,2.7192c.3781.2183.3307.5996-.1059.8517l-4.6665,2.6942A1.63981,1.63981,0,0,1,334.8527,282.4444Z" transform="translate(-227.78911 -113.62553)"/><path class="cls-7" d="M342.1258,286.6435l-4.7097-2.7191c-.3781-.2183-.3307-.5997.106-.8517l4.6665-2.6943a1.63978,1.63978,0,0,1,1.4753-.0611l4.7096,2.7191c.3782.2183.3308.5997-.1059.8518l-4.6665,2.6942A1.63946,1.63946,0,0,1,342.1258,286.6435Z" transform="translate(-227.78911 -113.62553)"/><path class="cls-7" d="M349.399,290.8427l-4.7097-2.7191c-.3781-.2183-.3307-.5997.1059-.8518l4.6665-2.6942a1.63981,1.63981,0,0,1,1.4753-.0612l4.7097,2.7192c.3781.2183.3307.5996-.1059.8517l-4.6665,2.6942A1.63981,1.63981,0,0,1,349.399,290.8427Z" transform="translate(-227.78911 -113.62553)"/><path class="cls-7" d="M356.6721,295.0419l-4.7097-2.7192c-.3781-.2183-.3307-.5996.106-.8517l4.6665-2.6942a1.6398,1.6398,0,0,1,1.4753-.0612l4.7096,2.7191c.3782.2184.3308.5997-.1059.8518l-4.6665,2.6942A1.6398,1.6398,0,0,1,356.6721,295.0419Z" transform="translate(-227.78911 -113.62553)"/><path class="cls-7" d="M363.9453,299.241l-4.7097-2.7191c-.3781-.2183-.3307-.5997.1059-.8518l4.6665-2.6942a1.63948,1.63948,0,0,1,1.4753-.0611l4.7097,2.7191c.3781.2183.3307.5997-.1059.8518l-4.6665,2.6942A1.63979,1.63979,0,0,1,363.9453,299.241Z" transform="translate(-227.78911 -113.62553)"/><path class="cls-7" d="M371.2184,303.4402l-4.7097-2.7192c-.3781-.2183-.3307-.5996.106-.8517l4.6665-2.6942a1.6398,1.6398,0,0,1,1.4753-.0612l4.7096,2.7191c.3782.2184.3308.5997-.1059.8518l-4.6665,2.6942A1.6398,1.6398,0,0,1,371.2184,303.4402Z" transform="translate(-227.78911 -113.62553)"/><path class="cls-7" d="M378.4916,307.6393l-4.7097-2.7191c-.3781-.2183-.3307-.5997.1059-.8518l4.6665-2.6942a1.63948,1.63948,0,0,1,1.4753-.0611l4.7097,2.7191c.3781.2183.3307.5997-.1059.8518l-4.6665,2.6942A1.63979,1.63979,0,0,1,378.4916,307.6393Z" transform="translate(-227.78911 -113.62553)"/><path class="cls-7" d="M385.7647,311.8385l-4.7097-2.7191c-.3781-.2184-.3307-.5997.106-.8518l4.6665-2.6942a1.6398,1.6398,0,0,1,1.4753-.0612l4.7097,2.7192c.3781.2183.3307.5996-.106.8517l-4.6665,2.6942A1.6398,1.6398,0,0,1,385.7647,311.8385Z" transform="translate(-227.78911 -113.62553)"/><path class="cls-7" d="M331.0229,272.058l-4.7097-2.7191c-.3781-.2183-.3307-.5997.1059-.8518l4.6666-2.6942a1.63978,1.63978,0,0,1,1.4753-.0611l4.7096,2.7191c.3782.2183.3307.5997-.1059.8518l-4.6665,2.6942A1.63947,1.63947,0,0,1,331.0229,272.058Z" transform="translate(-227.78911 -113.62553)"/><path class="cls-7" d="M323.6412,267.7962l-4.7097-2.7191c-.3781-.2183-.3307-.5997.1059-.8518l4.6665-2.6942a1.63948,1.63948,0,0,1,1.4753-.0611l4.7097,2.7191c.3782.2183.3307.5997-.1059.8518l-4.6665,2.6942A1.63979,1.63979,0,0,1,323.6412,267.7962Z" transform="translate(-227.78911 -113.62553)"/><path class="cls-7" d="M316.2474,263.5274l-10.1434-5.8563c-.3781-.2183-.3307-.5997.1059-.8518l4.6665-2.6942a1.63979,1.63979,0,0,1,1.4753-.0611l10.1435,5.8563c.3781.2183.3307.5997-.106.8518l-4.6665,2.6942A1.63978,1.63978,0,0,1,316.2474,263.5274Z" transform="translate(-227.78911 -113.62553)"/><path class="cls-7" d="M321.4156,258.336l-8.2316-4.7525c-.3782-.2183-.3308-.5997.1059-.8518l4.6665-2.6942a1.63946,1.63946,0,0,1,1.4753-.0611l8.2316,4.7525c.3782.2183.3308.5997-.1059.8518l-4.6665,2.6942A1.63946,1.63946,0,0,1,321.4156,258.336Z" transform="translate(-227.78911 -113.62553)"/><path class="cls-7" d="M338.296,276.2572l-4.7096-2.7191c-.3782-.2184-.3307-.5997.1059-.8518l4.6665-2.6942a1.63981,1.63981,0,0,1,1.4753-.0612l4.7097,2.7192c.3781.2183.3307.5996-.1059.8517l-4.6666,2.6942A1.6398,1.6398,0,0,1,338.296,276.2572Z" transform="translate(-227.78911 -113.62553)"/><path class="cls-7" d="M345.5692,280.4564l-4.7097-2.7192c-.3781-.2183-.3307-.5996.1059-.8517l4.6666-2.6943a1.64009,1.64009,0,0,1,1.4753-.0611l4.7096,2.7191c.3782.2183.3307.5997-.1059.8518l-4.6665,2.6942A1.63981,1.63981,0,0,1,345.5692,280.4564Z" transform="translate(-227.78911 -113.62553)"/><path class="cls-7" d="M352.8423,284.6555l-4.7096-2.7191c-.3782-.2183-.3307-.5997.1059-.8518l4.6665-2.6942a1.63947,1.63947,0,0,1,1.4753-.0611l4.7097,2.7191c.3781.2183.3307.5997-.1059.8517l-4.6665,2.6943A1.64,1.64,0,0,1,352.8423,284.6555Z" transform="translate(-227.78911 -113.62553)"/><path class="cls-7" d="M360.1155,288.8547l-4.7097-2.7192c-.3781-.2183-.3307-.5996.1059-.8517l4.6666-2.6942a1.6398,1.6398,0,0,1,1.4753-.0612l4.7096,2.7191c.3782.2184.3308.5997-.1059.8518l-4.6665,2.6942A1.63981,1.63981,0,0,1,360.1155,288.8547Z" transform="translate(-227.78911 -113.62553)"/><path class="cls-7" d="M367.3887,293.0538l-4.7097-2.7191c-.3782-.2183-.3307-.5997.1059-.8518l4.6665-2.6942a1.63948,1.63948,0,0,1,1.4753-.0611l4.7097,2.7191c.3781.2183.3307.5997-.1059.8518l-4.6665,2.6942A1.63979,1.63979,0,0,1,367.3887,293.0538Z" transform="translate(-227.78911 -113.62553)"/><path class="cls-7" d="M374.6618,297.253l-4.7097-2.7192c-.3781-.2183-.3307-.5996.106-.8517l4.6665-2.6942a1.6398,1.6398,0,0,1,1.4753-.0612l4.7096,2.7191c.3782.2184.3308.5997-.1059.8518l-4.6665,2.6942A1.63981,1.63981,0,0,1,374.6618,297.253Z" transform="translate(-227.78911 -113.62553)"/><path class="cls-7" d="M381.935,301.4521l-4.7097-2.7191c-.3782-.2183-.3307-.5997.1059-.8518l4.6665-2.6942a1.63979,1.63979,0,0,1,1.4753-.0611l4.7097,2.7191c.3781.2183.3307.5997-.1059.8518l-4.6665,2.6942A1.63948,1.63948,0,0,1,381.935,301.4521Z" transform="translate(-227.78911 -113.62553)"/><path class="cls-7" d="M389.2081,305.6513l-4.7097-2.7191c-.3781-.2184-.3307-.5997.106-.8518l4.6665-2.6942a1.6398,1.6398,0,0,1,1.4753-.0612l4.7096,2.7192c.3782.2183.3308.5996-.1059.8517l-4.6665,2.6942A1.63981,1.63981,0,0,1,389.2081,305.6513Z" transform="translate(-227.78911 -113.62553)"/><path class="cls-7" d="M396.4813,309.8504l-4.7097-2.7191c-.3782-.2183-.3307-.5997.1059-.8518l4.6665-2.6942a1.63979,1.63979,0,0,1,1.4753-.0611l4.7097,2.7191c.3781.2183.3307.5997-.1059.8518l-4.6665,2.6942A1.63948,1.63948,0,0,1,396.4813,309.8504Z" transform="translate(-227.78911 -113.62553)"/><path class="cls-7" d="M409.4113,317.3156l-10.2761-5.9329c-.3781-.2183-.3307-.5997.1059-.8518l4.6665-2.6942a1.63948,1.63948,0,0,1,1.4753-.0611l10.2761,5.9329c.3782.2183.3308.5997-.1059.8517l-4.6665,2.6943A1.63978,1.63978,0,0,1,409.4113,317.3156Z" transform="translate(-227.78911 -113.62553)"/><path class="cls-7" d="M423.5712,309.1404l-8.6734-5.0076c-.3781-.2183-.3307-.5997.1059-.8518l4.6665-2.6942a1.63981,1.63981,0,0,1,1.4753-.0612l8.6734,5.0076c.3782.2184.3308.5997-.1059.8518l-4.6665,2.6942A1.6398,1.6398,0,0,1,423.5712,309.1404Z" transform="translate(-227.78911 -113.62553)"/><path class="cls-7" d="M351.0329,275.4356l-4.7097-2.7191c-.3781-.2184-.3307-.5997.1059-.8518l4.6666-2.6942a1.6398,1.6398,0,0,1,1.4753-.0612l4.7096,2.7192c.3782.2183.3308.5996-.1059.8517l-4.6665,2.6942A1.63981,1.63981,0,0,1,351.0329,275.4356Z" transform="translate(-227.78911 -113.62553)"/><path class="cls-7" d="M343.5788,271.132l-4.7096-2.7191c-.3782-.2184-.3308-.5997.1059-.8518l4.6665-2.6942a1.6398,1.6398,0,0,1,1.4753-.0612l4.7097,2.7192c.3781.2183.3307.5996-.106.8517l-4.6665,2.6942A1.6398,1.6398,0,0,1,343.5788,271.132Z" transform="translate(-227.78911 -113.62553)"/><path class="cls-7" d="M336.1247,266.8284l-4.7096-2.7192c-.3782-.2183-.3307-.5996.1059-.8517l4.6665-2.6942a1.63981,1.63981,0,0,1,1.4753-.0612l4.7097,2.7191c.3781.2184.3307.5997-.1059.8518l-4.6665,2.6942A1.64,1.64,0,0,1,336.1247,266.8284Z" transform="translate(-227.78911 -113.62553)"/><path class="cls-7" d="M328.6707,262.5248l-4.7097-2.7192c-.3781-.2183-.3307-.5996.1059-.8517l4.6665-2.6942a1.63981,1.63981,0,0,1,1.4753-.0612l4.7097,2.7191c.3781.2183.3307.5997-.1059.8518l-4.6665,2.6942A1.63981,1.63981,0,0,1,328.6707,262.5248Z" transform="translate(-227.78911 -113.62553)"/><path class="cls-7" d="M358.3061,279.6347l-4.7097-2.7191c-.3782-.2183-.3307-.5997.1059-.8517l4.6665-2.6943a1.63979,1.63979,0,0,1,1.4753-.0611l4.7097,2.7191c.3781.2183.3307.5997-.1059.8518l-4.6665,2.6942A1.63948,1.63948,0,0,1,358.3061,279.6347Z" transform="translate(-227.78911 -113.62553)"/><path class="cls-7" d="M365.5792,283.8339l-4.7097-2.7191c-.3781-.2183-.3307-.5997.106-.8518l4.6665-2.6942a1.6398,1.6398,0,0,1,1.4753-.0612l4.7096,2.7192c.3782.2183.3308.5996-.1059.8517l-4.6665,2.6943A1.6401,1.6401,0,0,1,365.5792,283.8339Z" transform="translate(-227.78911 -113.62553)"/><path class="cls-7" d="M372.8524,288.0331l-4.7097-2.7192c-.3782-.2183-.3307-.5996.1059-.8517l4.6665-2.6942a1.63981,1.63981,0,0,1,1.4753-.0612l4.7097,2.7191c.3781.2184.3307.5997-.1059.8518l-4.6665,2.6942A1.63981,1.63981,0,0,1,372.8524,288.0331Z" transform="translate(-227.78911 -113.62553)"/><path class="cls-7" d="M380.1255,292.2322l-4.7097-2.7191c-.3781-.2183-.3307-.5997.106-.8518l4.6665-2.6942a1.63946,1.63946,0,0,1,1.4753-.0611l4.7096,2.7191c.3782.2183.3308.5997-.1059.8518l-4.6665,2.6942A1.63978,1.63978,0,0,1,380.1255,292.2322Z" transform="translate(-227.78911 -113.62553)"/><path class="cls-7" d="M387.3987,296.4314l-4.7097-2.7192c-.3782-.2183-.3307-.5996.1059-.8517l4.6665-2.6942a1.63981,1.63981,0,0,1,1.4753-.0612l4.7097,2.7191c.3781.2184.3307.5997-.1059.8518l-4.6665,2.6942A1.63981,1.63981,0,0,1,387.3987,296.4314Z" transform="translate(-227.78911 -113.62553)"/><path class="cls-7" d="M394.6718,300.6305l-4.7097-2.7191c-.3781-.2183-.3307-.5997.106-.8518l4.6665-2.6942a1.63946,1.63946,0,0,1,1.4753-.0611l4.7096,2.7191c.3782.2183.3308.5997-.1059.8518l-4.6665,2.6942A1.63978,1.63978,0,0,1,394.6718,300.6305Z" transform="translate(-227.78911 -113.62553)"/><path class="cls-7" d="M401.945,304.8297l-4.7097-2.7191c-.3782-.2184-.3307-.5997.1059-.8518l4.6665-2.6942a1.63981,1.63981,0,0,1,1.4753-.0612l4.7097,2.7192c.3781.2183.3307.5996-.1059.8517l-4.6665,2.6942A1.63981,1.63981,0,0,1,401.945,304.8297Z" transform="translate(-227.78911 -113.62553)"/><path class="cls-7" d="M409.2181,309.0288l-4.7097-2.7191c-.3781-.2183-.3307-.5997.106-.8518l4.6665-2.6942a1.63978,1.63978,0,0,1,1.4753-.0611l4.7096,2.7191c.3782.2183.3308.5997-.1059.8518l-4.6665,2.6942A1.63946,1.63946,0,0,1,409.2181,309.0288Z" transform="translate(-227.78911 -113.62553)"/><path class="cls-7" d="M416.4913,313.228l-4.7097-2.7191c-.3782-.2184-.3307-.5997.1059-.8518l4.6665-2.6942a1.63981,1.63981,0,0,1,1.4753-.0612l4.7097,2.7192c.3781.2183.3307.5996-.1059.8517l-4.6665,2.6942A1.63981,1.63981,0,0,1,416.4913,313.228Z" transform="translate(-227.78911 -113.62553)"/><path class="cls-7" d="M347.2031,265.0492l-4.7096-2.7191c-.3782-.2183-.3308-.5997.1059-.8518l4.6665-2.6942a1.63978,1.63978,0,0,1,1.4753-.0611l4.7097,2.7191c.3781.2183.3307.5997-.106.8518l-4.6665,2.6942A1.63946,1.63946,0,0,1,347.2031,265.0492Z" transform="translate(-227.78911 -113.62553)"/><path class="cls-7" d="M339.9662,260.871l-4.7097-2.7191c-.3782-.2184-.3307-.5997.1059-.8518l4.6665-2.6942a1.63981,1.63981,0,0,1,1.4753-.0612l4.7097,2.7192c.3781.2183.3307.5996-.1059.8517l-4.6665,2.6942A1.63981,1.63981,0,0,1,339.9662,260.871Z" transform="translate(-227.78911 -113.62553)"/><path class="cls-7" d="M332.7292,256.6927l-4.7097-2.7191c-.3781-.2183-.3307-.5997.1059-.8518l4.6666-2.6942a1.63946,1.63946,0,0,1,1.4753-.0611l4.7096,2.7191c.3782.2183.3307.5997-.1059.8518l-4.6665,2.6942A1.63978,1.63978,0,0,1,332.7292,256.6927Z" transform="translate(-227.78911 -113.62553)"/><path class="cls-7" d="M325.4922,252.5145l-4.7096-2.7192c-.3782-.2183-.3308-.5996.1059-.8517l4.6665-2.6943a1.64009,1.64009,0,0,1,1.4753-.0611l4.7097,2.7191c.3781.2183.3307.5997-.106.8518l-4.6665,2.6942A1.6398,1.6398,0,0,1,325.4922,252.5145Z" transform="translate(-227.78911 -113.62553)"/><path class="cls-7" d="M332.934,248.2179l-4.7096-2.7191c-.3782-.2183-.3308-.5997.1059-.8518l1.5426-.8906a1.63981,1.63981,0,0,1,1.4753-.0612l4.7097,2.7192c.3781.2183.3307.5996-.1059.8517l-1.5427.8907A1.63946,1.63946,0,0,1,332.934,248.2179Z" transform="translate(-227.78911 -113.62553)"/><path class="cls-7" d="M342.3783,253.6706l-4.7097-2.7192c-.3781-.2183-.3307-.5996.1059-.8517l1.5427-.8907a1.63946,1.63946,0,0,1,1.4753-.0611l4.7096,2.7191c.3782.2183.3308.5997-.1059.8518l-1.5426.8906A1.63981,1.63981,0,0,1,342.3783,253.6706Z" transform="translate(-227.78911 -113.62553)"/><path class="cls-7" d="M349.5851,257.8314l-4.7097-2.7191c-.3781-.2183-.3307-.5997.1059-.8518l1.5427-.8906a1.6398,1.6398,0,0,1,1.4753-.0612l4.7096,2.7192c.3782.2183.3308.5996-.1059.8517l-1.5426.8907A1.63979,1.63979,0,0,1,349.5851,257.8314Z" transform="translate(-227.78911 -113.62553)"/><path class="cls-7" d="M356.7919,261.9923l-4.7097-2.7192c-.3781-.2183-.3307-.5996.1059-.8517l1.5427-.8907a1.63978,1.63978,0,0,1,1.4753-.0611l4.7097,2.7191c.3781.2183.3307.5997-.106.8518l-1.5426.8906A1.63981,1.63981,0,0,1,356.7919,261.9923Z" transform="translate(-227.78911 -113.62553)"/><path class="cls-7" d="M363.9987,266.1531l-4.7097-2.7191c-.3781-.2183-.3307-.5997.106-.8518l1.5426-.8906a1.63981,1.63981,0,0,1,1.4753-.0612l4.7097,2.7192c.3781.2183.3307.5996-.106.8517l-1.5426.8907A1.63947,1.63947,0,0,1,363.9987,266.1531Z" transform="translate(-227.78911 -113.62553)"/><path class="cls-7" d="M404.2332,289.3825l-4.7097-2.7191c-.3781-.2183-.3307-.5997.106-.8518l1.5426-.8906a1.63981,1.63981,0,0,1,1.4753-.0612l4.7097,2.7192c.3781.2183.3307.5996-.1059.8517l-1.5427.8907A1.63946,1.63946,0,0,1,404.2332,289.3825Z" transform="translate(-227.78911 -113.62553)"/><path class="cls-7" d="M411.44,293.5434l-4.7096-2.7191c-.3782-.2184-.3308-.5997.1059-.8518l1.5426-.8906a1.63981,1.63981,0,0,1,1.4753-.0612l4.7097,2.7191c.3781.2183.3307.5997-.1059.8518l-1.5427.8906A1.6398,1.6398,0,0,1,411.44,293.5434Z" transform="translate(-227.78911 -113.62553)"/><path class="cls-7" d="M418.6468,297.7042l-4.7096-2.7191c-.3782-.2183-.3307-.5997.1059-.8517l1.5426-.8907a1.63948,1.63948,0,0,1,1.4753-.0611l4.7097,2.7191c.3782.2183.3307.5997-.1059.8517l-1.5427.8907A1.63946,1.63946,0,0,1,418.6468,297.7042Z" transform="translate(-227.78911 -113.62553)"/><path class="cls-7" d="M425.8537,301.8651l-4.7097-2.7191c-.3782-.2183-.3307-.5997.1059-.8518l1.5426-.8906a1.64,1.64,0,0,1,1.4754-.0612l4.7096,2.7191c.3782.2184.3307.5997-.1059.8518l-1.5426.8906A1.63981,1.63981,0,0,1,425.8537,301.8651Z" transform="translate(-227.78911 -113.62553)"/><path class="cls-7" d="M354.4763,269.2484l-4.7097-2.7191c-.3781-.2184-.3307-.5997.1059-.8518l4.6665-2.6942a1.63981,1.63981,0,0,1,1.4753-.0612l4.7097,2.7192c.3782.2183.3307.5996-.1059.8517l-4.6665,2.6942A1.63981,1.63981,0,0,1,354.4763,269.2484Z" transform="translate(-227.78911 -113.62553)"/><path class="cls-7" d="M361.7494,273.4476l-4.7096-2.7192c-.3782-.2183-.3308-.5996.1059-.8517l4.6665-2.6942a1.6398,1.6398,0,0,1,1.4753-.0612l4.7097,2.7191c.3781.2183.3307.5997-.106.8518l-4.6665,2.6942A1.6398,1.6398,0,0,1,361.7494,273.4476Z" transform="translate(-227.78911 -113.62553)"/><path class="cls-7" d="M369.0226,277.6467l-4.7097-2.7191c-.3781-.2183-.3307-.5997.1059-.8518l4.6665-2.6942a1.63948,1.63948,0,0,1,1.4753-.0611l4.7097,2.7191c.3782.2183.3307.5997-.1059.8517l-4.6665,2.6943A1.63979,1.63979,0,0,1,369.0226,277.6467Z" transform="translate(-227.78911 -113.62553)"/><path class="cls-7" d="M376.2957,281.8459l-4.7096-2.7192c-.3782-.2183-.3308-.5996.1059-.8517l4.6665-2.6942a1.6398,1.6398,0,0,1,1.4753-.0612l4.7097,2.7191c.3781.2184.3307.5997-.106.8518l-4.6665,2.6942A1.6398,1.6398,0,0,1,376.2957,281.8459Z" transform="translate(-227.78911 -113.62553)"/><path class="cls-7" d="M383.5689,286.045l-4.7097-2.7191c-.3781-.2183-.3307-.5997.1059-.8518l4.6665-2.6942a1.63948,1.63948,0,0,1,1.4753-.0611l4.7097,2.7191c.3782.2183.3307.5997-.1059.8518l-4.6665,2.6942A1.63979,1.63979,0,0,1,383.5689,286.045Z" transform="translate(-227.78911 -113.62553)"/><path class="cls-7" d="M390.842,290.2442l-4.7096-2.7192c-.3782-.2183-.3308-.5996.1059-.8517l4.6665-2.6942a1.63981,1.63981,0,0,1,1.4753-.0612l4.7097,2.7191c.3781.2184.3307.5997-.106.8518l-4.6665,2.6942A1.6398,1.6398,0,0,1,390.842,290.2442Z" transform="translate(-227.78911 -113.62553)"/><path class="cls-7" d="M398.1152,294.4433l-4.7097-2.7191c-.3781-.2183-.3307-.5997.1059-.8518l4.6665-2.6942a1.63979,1.63979,0,0,1,1.4753-.0611l4.7097,2.7191c.3782.2183.3307.5997-.1059.8518l-4.6665,2.6942A1.63948,1.63948,0,0,1,398.1152,294.4433Z" transform="translate(-227.78911 -113.62553)"/><path class="cls-7" d="M405.3883,298.6425l-4.7096-2.7191c-.3782-.2184-.3308-.5997.1059-.8518l4.6665-2.6942a1.63981,1.63981,0,0,1,1.4753-.0612l4.7097,2.7192c.3781.2183.3307.5996-.106.8517l-4.6665,2.6942A1.6398,1.6398,0,0,1,405.3883,298.6425Z" transform="translate(-227.78911 -113.62553)"/><path class="cls-7" d="M412.6615,302.8416l-4.7097-2.7191c-.3781-.2183-.3307-.5997.1059-.8518l4.6665-2.6942a1.63979,1.63979,0,0,1,1.4753-.0611l4.7097,2.7191c.3782.2183.3307.5997-.1059.8518l-4.6665,2.6942A1.63948,1.63948,0,0,1,412.6615,302.8416Z" transform="translate(-227.78911 -113.62553)"/><path class="cls-7" d="M312.8945,269.7668l-13.8705-8.0081c-.3781-.2183-.3307-.5996.106-.8517l4.6665-2.6942a1.6398,1.6398,0,0,1,1.4753-.0612l13.8704,8.0081c.3782.2183.3308.5997-.1059.8518l-4.6665,2.6942A1.63947,1.63947,0,0,1,312.8945,269.7668Z" transform="translate(-227.78911 -113.62553)"/><path class="cls-7" d="M402.2469,321.3545l-13.8705-8.0081c-.3781-.2184-.3307-.5997.106-.8518l4.6665-2.6942a1.6398,1.6398,0,0,1,1.4753-.0612l13.8704,8.0081c.3782.2184.3308.5997-.1059.8518l-4.6665,2.6942A1.6398,1.6398,0,0,1,402.2469,321.3545Z" transform="translate(-227.78911 -113.62553)"/><path class="cls-7" d="M373.1606,313.8369l-4.7097-2.7191c-.3781-.2183-.3307-.5997.1059-.8517l5.5591-3.2096a1.63978,1.63978,0,0,1,1.4753-.0611l4.7096,2.7191c.3782.2183.3308.5997-.1059.8518l-5.559,3.2095A1.63948,1.63948,0,0,1,373.1606,313.8369Z" transform="translate(-227.78911 -113.62553)"/><path class="cls-7" d="M320.3428,283.3426l-7.5321-4.3487c-.3781-.2183-.3307-.5996.1059-.8517l5.5591-3.2095a1.6398,1.6398,0,0,1,1.4753-.0612l7.532,4.3486c.3782.2184.3308.5997-.1059.8518l-5.559,3.2095A1.63981,1.63981,0,0,1,320.3428,283.3426Z" transform="translate(-227.78911 -113.62553)"/><path class="cls-7" d="M366.1528,309.791l-7.5321-4.3487c-.3782-.2183-.3307-.5996.1059-.8517l5.5591-3.2095a1.6398,1.6398,0,0,1,1.4753-.0612l7.532,4.3487c.3782.2183.3308.5996-.1059.8517l-5.559,3.2095A1.63981,1.63981,0,0,1,366.1528,309.791Z" transform="translate(-227.78911 -113.62553)"/><path class="cls-7" d="M330.8364,289.4011l-7.5321-4.3487c-.3781-.2183-.3307-.5997.1059-.8518l5.5591-3.2095a1.63978,1.63978,0,0,1,1.4753-.0611l7.532,4.3486c.3782.2184.3308.5997-.1059.8518l-5.559,3.2095A1.63981,1.63981,0,0,1,330.8364,289.4011Z" transform="translate(-227.78911 -113.62553)"/><path class="cls-7" d="M330.4956,280.9595l32.7473,18.9066a.44844.44844,0,0,1,0,.8496l-5.6688,3.2729a1.62628,1.62628,0,0,1-1.4715-.0001l-32.7472-18.9066Z" transform="translate(-227.78911 -113.62553)"/><path class="cls-7" d="M393.4878,321.4505l5.2461,3.0288c.31.179.2711.4915-.0868.6982l-2.274,1.3129a1.34408,1.34408,0,0,1-1.2093.0501l-5.2461-3.0288c-.3099-.179-.2711-.4915.0868-.6982l2.2741-1.3129A1.34388,1.34388,0,0,1,393.4878,321.4505Z" transform="translate(-227.78911 -113.62553)"/><path class="cls-7" d="M386.1544,317.2165l5.2461,3.0288c.3099.179.2711.4916-.0868.6982l-2.2741,1.3129a1.34377,1.34377,0,0,1-1.2093.0501l-5.246-3.0288c-.31-.1789-.2711-.4915.0868-.6982l2.274-1.3129A1.34408,1.34408,0,0,1,386.1544,317.2165Z" transform="translate(-227.78911 -113.62553)"/><path class="cls-7" d="M378.8812,313.0173l5.2461,3.0289c.31.1789.2711.4915-.0868.6981l-2.274,1.313a1.3444,1.3444,0,0,1-1.2093.0501l-5.2461-3.0288c-.3099-.179-.2711-.4916.0868-.6982l2.2741-1.3129A1.3439,1.3439,0,0,1,378.8812,313.0173Z" transform="translate(-227.78911 -113.62553)"/><path class="cls-7" d="M390.1708,314.8976l5.2461,3.0289c.3099.1789.2711.4915-.0868.6981l-2.2741,1.3129a1.34411,1.34411,0,0,1-1.2093.0502l-5.246-3.0289c-.31-.1789-.2711-.4915.0868-.6981l2.274-1.3129A1.34411,1.34411,0,0,1,390.1708,314.8976Z" transform="translate(-227.78911 -113.62553)"/></g><path class="cls-8" d="M467.1451,306.4025,328.1953,226.1799a6.15413,6.15413,0,0,1-2.547-6.8653l31.4228-102.0245c.7783-2.5301,3.1805-3.5585,5.3654-2.297l138.9498,80.2227a6.154,6.154,0,0,1,2.547,6.8653L472.5105,304.1055C471.7322,306.6356,469.33,307.664,467.1451,306.4025Z" transform="translate(-227.78911 -113.62553)"/><path class="cls-9" d="M465.8349,302.8297,331.0612,224.9535a5.88933,5.88933,0,0,1-2.4374-6.5699l30.0417-97.5346a3.414,3.414,0,0,1,5.1346-2.1983L498.5737,196.527a5.88924,5.88924,0,0,1,2.4375,6.5699l-30.0418,97.5346A3.41385,3.41385,0,0,1,465.8349,302.8297Z" transform="translate(-227.78911 -113.62553)"/><path class="cls-10" d="M465.8349,302.8297,331.0612,224.9535a5.88933,5.88933,0,0,1-2.4374-6.5699l30.0417-97.5346a3.414,3.414,0,0,1,5.1346-2.1983L498.5737,196.527a5.88924,5.88924,0,0,1,2.4375,6.5699l-30.0418,97.5346A3.41385,3.41385,0,0,1,465.8349,302.8297Z" transform="translate(-227.78911 -113.62553)"/><path class="cls-10" d="M465.8349,302.8297,331.0612,224.9535a5.88933,5.88933,0,0,1-2.4374-6.5699l30.0417-97.5346a3.414,3.414,0,0,1,5.1346-2.1983L498.5737,196.527a5.88924,5.88924,0,0,1,2.4375,6.5699l-30.0418,97.5346A3.41385,3.41385,0,0,1,465.8349,302.8297Z" transform="translate(-227.78911 -113.62553)"/><path class="cls-11" d="M458.5942,273.0233l-91.2347-52.6744a4.04092,4.04092,0,0,1-1.6724-4.5078l20.6323-66.9894a2.34243,2.34243,0,0,1,3.523-1.5083l91.2347,52.6744a4.04092,4.04092,0,0,1,1.6724,4.5078L462.1172,271.515A2.34241,2.34241,0,0,1,458.5942,273.0233Z" transform="translate(-227.78911 -113.62553)"/><path class="cls-12" d="M446.2673,274.6402l-91.2347-52.6744a4.04077,4.04077,0,0,1-1.6724-4.5078l20.6323-66.9895a2.34235,2.34235,0,0,1,3.5229-1.5082l91.2347,52.6744a4.04068,4.04068,0,0,1,1.6724,4.5077l-20.6323,66.9895A2.34239,2.34239,0,0,1,446.2673,274.6402Z" transform="translate(-227.78911 -113.62553)"/><g class="cls-13"><path class="cls-7" d="M444.1081,259.358l-21.8389-12.5596a2.97955,2.97955,0,0,1-1.2332-3.3239l15.2139-49.3968a1.72722,1.72722,0,0,1,2.5978-1.1121l21.8388,12.5596a2.97955,2.97955,0,0,1,1.2332,3.3239l-15.2139,49.3968A1.72713,1.72713,0,0,1,444.1081,259.358Z" transform="translate(-227.78911 -113.62553)"/></g><path class="cls-5" d="M468.7502,201.6347l-91.2349-52.6743a2.27145,2.27145,0,0,0-2.5671.0873,2.45816,2.45816,0,0,1,1.3175.3375l91.2348,52.6744a4.041,4.041,0,0,1,1.6722,4.5077l-20.6321,66.9894a2.75448,2.75448,0,0,1-.956,1.4208,2.413,2.413,0,0,0,2.2056-1.8457l20.6322-66.9894A4.04039,4.04039,0,0,0,468.7502,201.6347Z" transform="translate(-227.78911 -113.62553)"/><path class="cls-14" d="M435.0818,260.3255,413.243,247.7659a2.97969,2.97969,0,0,1-1.2332-3.324l15.2139-49.3967a1.72721,1.72721,0,0,1,2.5977-1.1122l21.8389,12.5596a2.97964,2.97964,0,0,1,1.2331,3.324l-15.2138,49.3967A1.7273,1.7273,0,0,1,435.0818,260.3255Z" transform="translate(-227.78911 -113.62553)"/><path class="cls-5" d="M451.6603,206.4926l-21.8388-12.5595a1.66137,1.66137,0,0,0-2.0119.1759,1.88576,1.88576,0,0,1,.7619.2489l21.8388,12.5596a2.97906,2.97906,0,0,1,1.2332,3.3239l-15.2137,49.3968a2.05964,2.05964,0,0,1-.586.9361,1.75788,1.75788,0,0,0,1.8359-1.361l15.2137-49.3968A2.97921,2.97921,0,0,0,451.6603,206.4926Z" transform="translate(-227.78911 -113.62553)"/><g class="cls-13"><path class="cls-7" d="M390.8783,185.1228l-4.1228-2.3803a1.07528,1.07528,0,0,1-.4582-1.1855h0a.61035.61035,0,0,1,.9269-.3858l4.1228,2.3803a1.07519,1.07519,0,0,1,.4582,1.1855h0A.61035.61035,0,0,1,390.8783,185.1228Z" transform="translate(-227.78911 -113.62553)"/><path class="cls-7" d="M400.6988,190.7927l-6.0791-3.5098a1.07514,1.07514,0,0,1-.4582-1.1855h0a.61035.61035,0,0,1,.9269-.3858l6.0791,3.5098a1.07514,1.07514,0,0,1,.4582,1.1855h0A.61035.61035,0,0,1,400.6988,190.7927Z" transform="translate(-227.78911 -113.62553)"/><path class="cls-7" d="M382.5638,203.4778l-4.1227-2.3802a1.07539,1.07539,0,0,1-.4583-1.1855h0a.61041.61041,0,0,1,.927-.3858l4.1228,2.3803a1.07528,1.07528,0,0,1,.4582,1.1855h0A.61038.61038,0,0,1,382.5638,203.4778Z" transform="translate(-227.78911 -113.62553)"/><path class="cls-7" d="M391.318,208.5321l-6.0791-3.5098a1.07514,1.07514,0,0,1-.4582-1.1855h0a.61035.61035,0,0,1,.9269-.3858l6.0792,3.5098a1.07528,1.07528,0,0,1,.4582,1.1855h0A.61046.61046,0,0,1,391.318,208.5321Z" transform="translate(-227.78911 -113.62553)"/><path class="cls-7" d="M378.5283,181.8518l-2.5754-1.487a1.07534,1.07534,0,0,1-.4583-1.1855h.0001a.61035.61035,0,0,1,.9269-.3858l2.5755,1.487a1.07528,1.07528,0,0,1,.4582,1.1855h0A.61044.61044,0,0,1,378.5283,181.8518Z" transform="translate(-227.78911 -113.62553)"/><path class="cls-7" d="M386.278,190.1853l-7.8691-4.5432a1.07534,1.07534,0,0,1-.4582-1.1855h0a.61044.61044,0,0,1,.927-.3858l7.869,4.5432a1.07528,1.07528,0,0,1,.4582,1.1855h0A.61035.61035,0,0,1,386.278,190.1853Z" transform="translate(-227.78911 -113.62553)"/><path class="cls-7" d="M379.0201,193.7134l-2.5754-1.4869a1.07519,1.07519,0,0,1-.4582-1.1855h0a.61035.61035,0,0,1,.9269-.3858l2.5755,1.487a1.07528,1.07528,0,0,1,.4582,1.1855h0A.61041.61041,0,0,1,379.0201,193.7134Z" transform="translate(-227.78911 -113.62553)"/><path class="cls-7" d="M392.2671,216.7985l-6.8789-3.9715a1.07528,1.07528,0,0,1-.4582-1.1855h0a.61046.61046,0,0,1,.927-.3858l6.8789,3.9715a1.07534,1.07534,0,0,1,.4582,1.1855h0A.61041.61041,0,0,1,392.2671,216.7985Z" transform="translate(-227.78911 -113.62553)"/><path class="cls-7" d="M376.1336,199.7653l-1.6532-.9544a1.07534,1.07534,0,0,1-.4582-1.1855h0a.61044.61044,0,0,1,.927-.3858l1.6531.9544a1.07534,1.07534,0,0,1,.4582,1.1855h0A.61031.61031,0,0,1,376.1336,199.7653Z" transform="translate(-227.78911 -113.62553)"/><path class="cls-7" d="M374.5692,206.5806l-2.053-1.1853a1.07539,1.07539,0,0,1-.4583-1.1855h0a.61046.61046,0,0,1,.927-.3858l2.053,1.1853a1.07519,1.07519,0,0,1,.4582,1.1855h0A.61035.61035,0,0,1,374.5692,206.5806Z" transform="translate(-227.78911 -113.62553)"/><path class="cls-7" d="M382.5559,211.1918l-5.4126-3.1251a1.07534,1.07534,0,0,1-.4583-1.1855h0a.61038.61038,0,0,1,.927-.3857l5.4127,3.125a1.07528,1.07528,0,0,1,.4582,1.1855h0A.61046.61046,0,0,1,382.5559,211.1918Z" transform="translate(-227.78911 -113.62553)"/><path class="cls-7" d="M375.4257,210.9344l-3.8917-2.2469a1.07534,1.07534,0,0,1-.4582-1.1855h0a.61046.61046,0,0,1,.927-.3858l3.8917,2.2469a1.07528,1.07528,0,0,1,.4582,1.1855h0A.61044.61044,0,0,1,375.4257,210.9344Z" transform="translate(-227.78911 -113.62553)"/><path class="cls-7" d="M398.1687,220.2224l-2.4994-1.443a1.07534,1.07534,0,0,1-.4582-1.1855h0a.61046.61046,0,0,1,.927-.3858l2.4993,1.443a1.07514,1.07514,0,0,1,.4582,1.1855h0A.61035.61035,0,0,1,398.1687,220.2224Z" transform="translate(-227.78911 -113.62553)"/><path class="cls-7" d="M388.6004,199.2446l-6.8789-3.9715a1.07534,1.07534,0,0,1-.4582-1.1855h0a.61046.61046,0,0,1,.927-.3858l6.8789,3.9715a1.07534,1.07534,0,0,1,.4582,1.1855h0A.61046.61046,0,0,1,388.6004,199.2446Z" transform="translate(-227.78911 -113.62553)"/></g><path class="cls-15" d="M389.4159,195.8562l-11.9891-6.9219a1.07519,1.07519,0,0,1-.4582-1.1855h0a.61035.61035,0,0,1,.9269-.3858l11.9891,6.9219a1.07528,1.07528,0,0,1,.4582,1.1855h0A.61035.61035,0,0,1,389.4159,195.8562Z" transform="translate(-227.78911 -113.62553)"/><path class="cls-15" d="M382.3414,199.4902l-6.8789-3.9715a1.07534,1.07534,0,0,1-.4582-1.1855h0a.61046.61046,0,0,1,.927-.3858l6.8789,3.9715a1.07534,1.07534,0,0,1,.4582,1.1855h0A.61046.61046,0,0,1,382.3414,199.4902Z" transform="translate(-227.78911 -113.62553)"/><path class="cls-15" d="M393.8178,202.2569l-2.4993-1.443a1.07519,1.07519,0,0,1-.4582-1.1855h0a.61035.61035,0,0,1,.9269-.3858l2.4993,1.443a1.07514,1.07514,0,0,1,.4582,1.1855h0A.61035.61035,0,0,1,393.8178,202.2569Z" transform="translate(-227.78911 -113.62553)"/><path class="cls-15" d="M419.2407,201.4979l-14.8005-8.5451a1.07519,1.07519,0,0,1-.4582-1.1855h0a.61035.61035,0,0,1,.9269-.3858l14.8005,8.5451a1.07514,1.07514,0,0,1,.4582,1.1855h0A.61035.61035,0,0,1,419.2407,201.4979Z" transform="translate(-227.78911 -113.62553)"/><path class="cls-16" d="M381.7672,206.8771l-8.2689-4.774a1.07519,1.07519,0,0,1-.4582-1.1855h0a.61035.61035,0,0,1,.9269-.3858l8.2689,4.7741a1.07514,1.07514,0,0,1,.4582,1.1855h0A.61027.61027,0,0,1,381.7672,206.8771Z" transform="translate(-227.78911 -113.62553)"/><path class="cls-16" d="M383.0141,180.5824l-6.0791-3.5098a1.07514,1.07514,0,0,1-.4582-1.1855h0a.61035.61035,0,0,1,.9269-.3858l6.0792,3.5098a1.07534,1.07534,0,0,1,.4582,1.1855h0A.61041.61041,0,0,1,383.0141,180.5824Z" transform="translate(-227.78911 -113.62553)"/><path class="cls-15" d="M374.1545,214.0596l-7.0408-4.065a1.07528,1.07528,0,0,1-.4582-1.1855h0a.61038.61038,0,0,1,.927-.3857l7.0407,4.0649a1.07534,1.07534,0,0,1,.4582,1.1855h0A.61031.61031,0,0,1,374.1545,214.0596Z" transform="translate(-227.78911 -113.62553)"/><path class="cls-5" d="M464.3159,191.9334l-4.1228-2.3803a1.07519,1.07519,0,0,1-.4582-1.1855h0a.61035.61035,0,0,1,.9269-.3858l4.1228,2.3803a1.07528,1.07528,0,0,1,.4582,1.1855h0A.61035.61035,0,0,1,464.3159,191.9334Z" transform="translate(-227.78911 -113.62553)"/><path class="cls-5" d="M472.18,196.4738l-4.1228-2.3803a1.07534,1.07534,0,0,1-.4582-1.1855h0a.61046.61046,0,0,1,.927-.3858l4.1228,2.3803a1.07528,1.07528,0,0,1,.4582,1.1855h0A.61046.61046,0,0,1,472.18,196.4738Z" transform="translate(-227.78911 -113.62553)"/><path class="cls-5" d="M480.0442,201.0141l-4.1228-2.3802a1.07534,1.07534,0,0,1-.4582-1.1855h0a.61031.61031,0,0,1,.9269-.3858l4.1228,2.3803a1.07514,1.07514,0,0,1,.4582,1.1855h0A.61027.61027,0,0,1,480.0442,201.0141Z" transform="translate(-227.78911 -113.62553)"/><path class="cls-16" d="M483.9096,203.2487l-.124-.0745a1.07514,1.07514,0,0,1-.4582-1.1855h0a.61027.61027,0,0,1,.9269-.3857l.1241.0744a1.07534,1.07534,0,0,1,.4582,1.1855h0A.61046.61046,0,0,1,483.9096,203.2487Z" transform="translate(-227.78911 -113.62553)"/><path class="cls-15" d="M423.1368,222.8812a.66611.66611,0,0,0-1.0383.3274l-.7854,2.5762a1.15507,1.15507,0,0,0,.5575,1.2492.666.666,0,0,0,1.0383-.3274l.7855-2.5763A1.155,1.155,0,0,0,423.1368,222.8812Z" transform="translate(-227.78911 -113.62553)"/><path class="cls-16" d="M426.4583,225.1783a.66607.66607,0,0,0-1.0383.3274l-.6873,2.2542a1.1552,1.1552,0,0,0,.5576,1.2492.666.666,0,0,0,1.0383-.3275l.6872-2.2541A1.15476,1.15476,0,0,0,426.4583,225.1783Z" transform="translate(-227.78911 -113.62553)"/><path class="cls-15" d="M430.6448,224.6381a.66607.66607,0,0,0-1.0383.3275l-1.4541,4.7694a1.15505,1.15505,0,0,0,.5575,1.2492.666.666,0,0,0,1.0383-.3275l1.4541-4.7694A1.15482,1.15482,0,0,0,430.6448,224.6381Z" transform="translate(-227.78911 -113.62553)"/><path class="cls-15" d="M434.9023,223.8651a.66617.66617,0,0,0-1.0383.3275l-2.292,7.5175a1.15526,1.15526,0,0,0,.5576,1.2492.666.666,0,0,0,1.0383-.3275l2.2919-7.5175A1.155,1.155,0,0,0,434.9023,223.8651Z" transform="translate(-227.78911 -113.62553)"/><path class="cls-16" d="M438.0815,226.6286a.666.666,0,0,0-1.0382.3275l-2.0516,6.7291a1.15505,1.15505,0,0,0,.5575,1.2492.666.666,0,0,0,1.0383-.3275l2.0516-6.7291A1.155,1.155,0,0,0,438.0815,226.6286Z" transform="translate(-227.78911 -113.62553)"/><path class="cls-15" d="M443.0326,223.5808a.66612.66612,0,0,0-1.0383.3275l-3.583,11.7519a1.1552,1.1552,0,0,0,.5576,1.2492.66585.66585,0,0,0,1.0382-.3275l3.583-11.7519A1.15488,1.15488,0,0,0,443.0326,223.5808Z" transform="translate(-227.78911 -113.62553)"/><path class="cls-10" d="M331.1982,329.3443a6.86007,6.86007,0,0,1-3.3799-.792l-36.5528-21.1035a2.63837,2.63837,0,0,1-1.5019-2.253,3.4548,3.4548,0,0,1,2.0156-2.7929l18.8164-10.8633a8.41618,8.41618,0,0,1,7.6836-.2969l36.5527,21.1035a2.6412,2.6412,0,0,1,1.503,2.252,3.45618,3.45618,0,0,1-2.0166,2.7939l-18.8155,10.8633A8.80212,8.80212,0,0,1,331.1982,329.3443Zm-16.2813-37.8262a7.83757,7.83757,0,0,0-3.7939.9356l-18.8164,10.8632c-.9454.5459-1.4883,1.2305-1.4883,1.8799a1.66974,1.66974,0,0,0,.9746,1.3379l36.5527,21.1035a7.50255,7.50255,0,0,0,6.6299-.2968l18.8154-10.8633c.9453-.5459,1.4883-1.2315,1.4883-1.8799a1.66993,1.66993,0,0,0-.9746-1.3379l-36.5527-21.1035A5.80642,5.80642,0,0,0,314.9169,291.5181Z" transform="translate(-227.78911 -113.62553)"/></svg>